<svg width="543" height="628" viewBox="0 0 543 628" fill="none" xmlns="http://www.w3.org/2000/svg">
<g clip-path="url(#clip0_3351_14680)">
<rect width="543" height="628" fill="url(#paint0_linear_3351_14680)"/>
<g opacity="0.2">
<path d="M-388.773 594.122H886.515M-388.773 487.086H886.515M-388.773 380.716H886.515M-388.773 274.346H886.515M-388.773 167.31H886.515M-388.773 60.9401H886.515M-334.308 -32.0625V685.938M-227.792 -32.0625V685.938M-121.277 -32.0625V685.938M-14.7612 -32.0625V685.938M91.7545 -32.0625V685.938M198.27 -32.0625V685.938M304.786 -32.0625V685.938M411.301 -32.0625V685.938M517.817 -32.0625V685.938M624.332 -32.0625V685.938M730.848 -32.0625V685.938M837.363 -32.0625V685.938" stroke="url(#paint1_radial_3351_14680)" stroke-width="0.5781"/>
</g>
<g filter="url(#filter0_d_3351_14680)">
<path d="M32 244C32 174.964 87.9644 119 157 119V119C226.036 119 282 174.964 282 244V244C282 313.036 226.036 369 157 369V369C87.9644 369 32 313.036 32 244V244Z" fill="white" fill-opacity="0.1" shape-rendering="crispEdges"/>
<path d="M130.258 282.395C128.625 282.395 127.207 282.035 126.004 281.316C124.809 280.598 123.938 279.551 123.391 278.176C122.844 276.793 122.734 275.113 123.062 273.137C123.375 271.238 124 269.648 124.938 268.367C125.883 267.078 127.031 266.105 128.383 265.449C129.742 264.793 131.195 264.465 132.742 264.465C134.367 264.465 135.777 264.824 136.973 265.543C138.176 266.254 139.051 267.301 139.598 268.684C140.152 270.059 140.262 271.746 139.926 273.746C139.613 275.637 138.984 277.227 138.039 278.516C137.094 279.797 135.945 280.766 134.594 281.422C133.242 282.07 131.797 282.395 130.258 282.395ZM130.457 278.27C131.285 278.27 132.016 278.07 132.648 277.672C133.289 277.273 133.82 276.691 134.242 275.926C134.672 275.16 134.977 274.23 135.156 273.137C135.32 272.137 135.332 271.301 135.191 270.629C135.051 269.957 134.758 269.449 134.312 269.105C133.875 268.762 133.285 268.59 132.543 268.59C131.723 268.59 130.992 268.793 130.352 269.199C129.711 269.598 129.176 270.18 128.746 270.945C128.324 271.711 128.02 272.645 127.832 273.746C127.668 274.738 127.656 275.57 127.797 276.242C127.938 276.914 128.23 277.422 128.676 277.766C129.121 278.102 129.715 278.27 130.457 278.27ZM146.734 264.699L148.258 277.004H148.398L154.023 264.699H159.367L150.719 282.16H144.25L141.367 264.699H146.734ZM157.574 282.16L160.48 264.699H173.066L172.41 268.52H164.582L164.09 271.52H171.285L170.652 275.34H163.457L162.965 278.34H170.77L170.137 282.16H157.574ZM171.941 282.16L174.848 264.699H182.395C183.691 264.699 184.785 264.938 185.676 265.414C186.566 265.891 187.207 266.57 187.598 267.453C187.988 268.336 188.082 269.395 187.879 270.629C187.676 271.879 187.223 272.934 186.52 273.793C185.824 274.652 184.941 275.301 183.871 275.738C182.801 276.176 181.598 276.395 180.262 276.395H175.762L176.395 272.715H179.934C180.488 272.715 180.973 272.648 181.387 272.516C181.809 272.375 182.152 272.152 182.418 271.848C182.684 271.535 182.855 271.129 182.934 270.629C183.051 269.887 182.902 269.344 182.488 269C182.074 268.656 181.457 268.488 180.637 268.496H178.973L176.699 282.16H171.941ZM181.387 282.16L178.457 274.145H183.52L186.543 282.16H181.387ZM112.832 288.699L109.926 306.16H105.191L107.371 293.059H107.277L103.082 295.355L103.715 291.324L108.449 288.699H112.832ZM118.738 288.699H124.645L127.059 298.59H127.27L132.965 288.699H138.848L135.965 306.16H131.324L132.988 296.059H132.848L127.34 306.02H124.527L122.324 296.012H122.184L120.473 306.16H115.832L118.738 288.699ZM145.293 288.699L142.41 306.16H137.652L140.559 288.699H145.293ZM144.098 306.16L147.004 288.699H151.738L149.488 302.34H156.543L155.91 306.16H144.098ZM157.246 306.16L160.152 288.699H164.887L162.637 302.34H169.691L169.059 306.16H157.246ZM178.035 288.699L175.152 306.16H170.395L173.301 288.699H178.035ZM185.477 306.395C183.844 306.395 182.426 306.035 181.223 305.316C180.027 304.598 179.156 303.551 178.609 302.176C178.062 300.793 177.953 299.113 178.281 297.137C178.594 295.238 179.219 293.648 180.156 292.367C181.102 291.078 182.25 290.105 183.602 289.449C184.961 288.793 186.414 288.465 187.961 288.465C189.586 288.465 190.996 288.824 192.191 289.543C193.395 290.254 194.27 291.301 194.816 292.684C195.371 294.059 195.48 295.746 195.145 297.746C194.832 299.637 194.203 301.227 193.258 302.516C192.312 303.797 191.164 304.766 189.812 305.422C188.461 306.07 187.016 306.395 185.477 306.395ZM185.676 302.27C186.504 302.27 187.234 302.07 187.867 301.672C188.508 301.273 189.039 300.691 189.461 299.926C189.891 299.16 190.195 298.23 190.375 297.137C190.539 296.137 190.551 295.301 190.41 294.629C190.27 293.957 189.977 293.449 189.531 293.105C189.094 292.762 188.504 292.59 187.762 292.59C186.941 292.59 186.211 292.793 185.57 293.199C184.93 293.598 184.395 294.18 183.965 294.945C183.543 295.711 183.238 296.645 183.051 297.746C182.887 298.738 182.875 299.57 183.016 300.242C183.156 300.914 183.449 301.422 183.895 301.766C184.34 302.102 184.934 302.27 185.676 302.27ZM213.355 288.699L210.473 306.16H206.512L201.73 296.996H201.637L200.113 306.16H195.355L198.262 288.699H202.293L206.98 297.84H207.121L208.621 288.699H213.355Z" fill="#222222"/>
<path opacity="0.6" d="M95.1941 320.432C96.0714 320.432 96.7668 320.726 97.2801 321.314C97.8028 321.902 98.0641 322.667 98.0641 323.61V328.16H96.5101V323.918C96.5101 323.237 96.3608 322.719 96.0621 322.364C95.7728 322 95.3434 321.818 94.7741 321.818C94.1861 321.818 93.7008 322.033 93.3181 322.462C92.9354 322.891 92.7441 323.442 92.7441 324.114V328.16H91.1901V320.6H92.2681L92.5761 321.65C92.8654 321.267 93.2341 320.969 93.6821 320.754C94.1394 320.539 94.6434 320.432 95.1941 320.432ZM107.075 324.394C107.075 324.534 107.065 324.707 107.047 324.912H100.915C101.008 325.519 101.26 325.999 101.671 326.354C102.091 326.709 102.609 326.886 103.225 326.886C103.523 326.886 103.803 326.844 104.065 326.76C104.326 326.667 104.555 326.541 104.751 326.382C104.956 326.214 105.124 326.013 105.255 325.78H106.893C106.594 326.583 106.118 327.213 105.465 327.67C104.811 328.118 104.065 328.342 103.225 328.342C102.114 328.342 101.185 327.964 100.439 327.208C99.7012 326.452 99.3325 325.509 99.3325 324.38C99.3325 323.251 99.7012 322.308 100.439 321.552C101.185 320.796 102.114 320.418 103.225 320.418C103.981 320.418 104.653 320.6 105.241 320.964C105.829 321.319 106.281 321.799 106.599 322.406C106.916 323.003 107.075 323.666 107.075 324.394ZM103.225 321.818C102.646 321.818 102.151 321.981 101.741 322.308C101.339 322.635 101.073 323.083 100.943 323.652H105.521C105.427 323.269 105.273 322.943 105.059 322.672C104.844 322.392 104.578 322.182 104.261 322.042C103.953 321.893 103.607 321.818 103.225 321.818ZM117.338 320.6H118.892L116.358 328.16H115.098L113.152 323.554L111.206 328.16H109.946L107.426 320.6H109.022L110.73 325.696L112.9 320.684H113.404L115.602 325.738L117.338 320.6ZM126.337 328.342C125.301 328.342 124.471 328.034 123.845 327.418C123.22 326.802 122.907 325.985 122.907 324.968V320.6H124.461V324.744C124.461 325.407 124.629 325.925 124.965 326.298C125.301 326.671 125.759 326.858 126.337 326.858C126.925 326.858 127.387 326.671 127.723 326.298C128.059 325.915 128.227 325.397 128.227 324.744V320.6H129.781V324.968C129.781 325.985 129.469 326.802 128.843 327.418C128.218 328.034 127.383 328.342 126.337 328.342ZM134.105 328.342C133.181 328.342 132.439 328.109 131.879 327.642C131.319 327.175 131.03 326.55 131.011 325.766H132.537C132.556 326.149 132.71 326.447 132.999 326.662C133.298 326.867 133.685 326.97 134.161 326.97C134.441 326.97 134.688 326.933 134.903 326.858C135.127 326.783 135.304 326.671 135.435 326.522C135.566 326.373 135.631 326.195 135.631 325.99C135.631 325.85 135.598 325.729 135.533 325.626C135.468 325.514 135.388 325.425 135.295 325.36C135.202 325.295 135.066 325.234 134.889 325.178C134.721 325.122 134.567 325.08 134.427 325.052C134.296 325.024 134.119 324.991 133.895 324.954C133.662 324.917 133.475 324.884 133.335 324.856C133.195 324.828 133.018 324.786 132.803 324.73C132.588 324.665 132.411 324.599 132.271 324.534C132.14 324.459 131.996 324.366 131.837 324.254C131.678 324.142 131.552 324.016 131.459 323.876C131.375 323.736 131.3 323.568 131.235 323.372C131.179 323.167 131.151 322.943 131.151 322.7C131.151 322.019 131.417 321.468 131.949 321.048C132.49 320.628 133.2 320.418 134.077 320.418C134.954 320.418 135.659 320.637 136.191 321.076C136.723 321.515 136.994 322.103 137.003 322.84H135.533C135.524 322.485 135.388 322.215 135.127 322.028C134.866 321.832 134.506 321.734 134.049 321.734C133.62 321.734 133.279 321.818 133.027 321.986C132.775 322.154 132.649 322.373 132.649 322.644C132.649 322.756 132.668 322.854 132.705 322.938C132.742 323.022 132.803 323.097 132.887 323.162C132.98 323.227 133.064 323.283 133.139 323.33C133.223 323.367 133.344 323.405 133.503 323.442C133.662 323.479 133.792 323.507 133.895 323.526C133.998 323.545 134.147 323.568 134.343 323.596C134.595 323.643 134.782 323.68 134.903 323.708C135.034 323.727 135.216 323.769 135.449 323.834C135.682 323.89 135.864 323.951 135.995 324.016C136.126 324.081 136.275 324.175 136.443 324.296C136.62 324.408 136.751 324.539 136.835 324.688C136.928 324.828 137.008 325.005 137.073 325.22C137.138 325.435 137.171 325.668 137.171 325.92C137.171 326.657 136.891 327.245 136.331 327.684C135.771 328.123 135.029 328.342 134.105 328.342ZM145.733 324.394C145.733 324.534 145.724 324.707 145.705 324.912H139.573C139.666 325.519 139.918 325.999 140.329 326.354C140.749 326.709 141.267 326.886 141.883 326.886C142.182 326.886 142.462 326.844 142.723 326.76C142.984 326.667 143.213 326.541 143.409 326.382C143.614 326.214 143.782 326.013 143.913 325.78H145.551C145.252 326.583 144.776 327.213 144.123 327.67C143.47 328.118 142.723 328.342 141.883 328.342C140.772 328.342 139.844 327.964 139.097 327.208C138.36 326.452 137.991 325.509 137.991 324.38C137.991 323.251 138.36 322.308 139.097 321.552C139.844 320.796 140.772 320.418 141.883 320.418C142.639 320.418 143.311 320.6 143.899 320.964C144.487 321.319 144.94 321.799 145.257 322.406C145.574 323.003 145.733 323.666 145.733 324.394ZM141.883 321.818C141.304 321.818 140.81 321.981 140.399 322.308C139.998 322.635 139.732 323.083 139.601 323.652H144.179C144.086 323.269 143.932 322.943 143.717 322.672C143.502 322.392 143.236 322.182 142.919 322.042C142.611 321.893 142.266 321.818 141.883 321.818ZM150.729 320.558H151.401V322.028H150.589C149.301 322.028 148.657 322.728 148.657 324.128V328.16H147.103V320.6H148.153L148.419 321.636C148.96 320.917 149.73 320.558 150.729 320.558ZM154.798 328.342C153.874 328.342 153.132 328.109 152.572 327.642C152.012 327.175 151.723 326.55 151.704 325.766H153.23C153.249 326.149 153.403 326.447 153.692 326.662C153.991 326.867 154.378 326.97 154.854 326.97C155.134 326.97 155.382 326.933 155.596 326.858C155.82 326.783 155.998 326.671 156.128 326.522C156.259 326.373 156.324 326.195 156.324 325.99C156.324 325.85 156.292 325.729 156.226 325.626C156.161 325.514 156.082 325.425 155.988 325.36C155.895 325.295 155.76 325.234 155.582 325.178C155.414 325.122 155.26 325.08 155.12 325.052C154.99 325.024 154.812 324.991 154.588 324.954C154.355 324.917 154.168 324.884 154.028 324.856C153.888 324.828 153.711 324.786 153.496 324.73C153.282 324.665 153.104 324.599 152.964 324.534C152.834 324.459 152.689 324.366 152.53 324.254C152.372 324.142 152.246 324.016 152.152 323.876C152.068 323.736 151.994 323.568 151.928 323.372C151.872 323.167 151.844 322.943 151.844 322.7C151.844 322.019 152.11 321.468 152.642 321.048C153.184 320.628 153.893 320.418 154.77 320.418C155.648 320.418 156.352 320.637 156.884 321.076C157.416 321.515 157.687 322.103 157.696 322.84H156.226C156.217 322.485 156.082 322.215 155.82 322.028C155.559 321.832 155.2 321.734 154.742 321.734C154.313 321.734 153.972 321.818 153.72 321.986C153.468 322.154 153.342 322.373 153.342 322.644C153.342 322.756 153.361 322.854 153.398 322.938C153.436 323.022 153.496 323.097 153.58 323.162C153.674 323.227 153.758 323.283 153.832 323.33C153.916 323.367 154.038 323.405 154.196 323.442C154.355 323.479 154.486 323.507 154.588 323.526C154.691 323.545 154.84 323.568 155.036 323.596C155.288 323.643 155.475 323.68 155.596 323.708C155.727 323.727 155.909 323.769 156.142 323.834C156.376 323.89 156.558 323.951 156.688 324.016C156.819 324.081 156.968 324.175 157.136 324.296C157.314 324.408 157.444 324.539 157.528 324.688C157.622 324.828 157.701 325.005 157.766 325.22C157.832 325.435 157.864 325.668 157.864 325.92C157.864 326.657 157.584 327.245 157.024 327.684C156.464 328.123 155.722 328.342 154.798 328.342ZM168.82 320.6H170.024V328.16H168.764L168.61 327.236C167.882 327.973 166.972 328.342 165.88 328.342C164.75 328.342 163.808 327.964 163.052 327.208C162.305 326.452 161.932 325.509 161.932 324.38C161.932 323.241 162.305 322.299 163.052 321.552C163.808 320.796 164.75 320.418 165.88 320.418C166.99 320.418 167.91 320.791 168.638 321.538L168.82 320.6ZM164.214 326.158C164.69 326.625 165.282 326.858 165.992 326.858C166.71 326.858 167.298 326.625 167.756 326.158C168.222 325.682 168.456 325.089 168.456 324.38C168.456 323.661 168.222 323.069 167.756 322.602C167.298 322.135 166.71 321.902 165.992 321.902C165.525 321.902 165.1 322.009 164.718 322.224C164.344 322.439 164.05 322.737 163.836 323.12C163.621 323.493 163.514 323.913 163.514 324.38C163.514 325.089 163.747 325.682 164.214 326.158ZM175.362 328.342C174.242 328.342 173.299 327.964 172.534 327.208C171.778 326.443 171.4 325.5 171.4 324.38C171.4 323.251 171.778 322.308 172.534 321.552C173.299 320.796 174.246 320.418 175.376 320.418C176.3 320.418 177.102 320.679 177.784 321.202C178.465 321.725 178.908 322.42 179.114 323.288H177.574C177.378 322.859 177.084 322.523 176.692 322.28C176.3 322.028 175.856 321.902 175.362 321.902C174.923 321.902 174.522 322.009 174.158 322.224C173.794 322.439 173.504 322.737 173.29 323.12C173.084 323.493 172.982 323.913 172.982 324.38C172.982 325.08 173.21 325.668 173.668 326.144C174.125 326.62 174.69 326.858 175.362 326.858C175.856 326.858 176.295 326.732 176.678 326.48C177.07 326.228 177.368 325.869 177.574 325.402H179.142C178.927 326.289 178.474 327.003 177.784 327.544C177.102 328.076 176.295 328.342 175.362 328.342ZM186.773 320.6H187.809V330.876H186.255V327.432C185.555 328.039 184.719 328.342 183.749 328.342C182.619 328.342 181.681 327.969 180.935 327.222C180.197 326.466 179.829 325.519 179.829 324.38C179.829 323.241 180.197 322.299 180.935 321.552C181.681 320.796 182.619 320.418 183.749 320.418C184.841 320.418 185.751 320.787 186.479 321.524L186.773 320.6ZM182.111 326.158C182.577 326.625 183.165 326.858 183.875 326.858C184.584 326.858 185.172 326.625 185.639 326.158C186.115 325.682 186.353 325.089 186.353 324.38C186.353 323.671 186.115 323.083 185.639 322.616C185.172 322.14 184.584 321.902 183.875 321.902C183.408 321.902 182.983 322.009 182.601 322.224C182.227 322.439 181.933 322.737 181.719 323.12C181.513 323.493 181.411 323.913 181.411 324.38C181.411 325.089 181.644 325.682 182.111 326.158ZM193.079 328.342C192.043 328.342 191.212 328.034 190.587 327.418C189.962 326.802 189.649 325.985 189.649 324.968V320.6H191.203V324.744C191.203 325.407 191.371 325.925 191.707 326.298C192.043 326.671 192.5 326.858 193.079 326.858C193.667 326.858 194.129 326.671 194.465 326.298C194.801 325.915 194.969 325.397 194.969 324.744V320.6H196.523V324.968C196.523 325.985 196.21 326.802 195.585 327.418C194.96 328.034 194.124 328.342 193.079 328.342ZM198.299 319.424V317.828H199.909V319.424H198.299ZM198.327 328.16V320.6H199.881V328.16H198.327ZM205.433 320.558H206.105V322.028H205.293C204.005 322.028 203.361 322.728 203.361 324.128V328.16H201.807V320.6H202.857L203.123 321.636C203.664 320.917 204.434 320.558 205.433 320.558ZM214.013 324.394C214.013 324.534 214.004 324.707 213.985 324.912H207.853C207.947 325.519 208.199 325.999 208.609 326.354C209.029 326.709 209.547 326.886 210.163 326.886C210.462 326.886 210.742 326.844 211.003 326.76C211.265 326.667 211.493 326.541 211.689 326.382C211.895 326.214 212.063 326.013 212.193 325.78H213.831C213.533 326.583 213.057 327.213 212.403 327.67C211.75 328.118 211.003 328.342 210.163 328.342C209.053 328.342 208.124 327.964 207.377 327.208C206.64 326.452 206.271 325.509 206.271 324.38C206.271 323.251 206.64 322.308 207.377 321.552C208.124 320.796 209.053 320.418 210.163 320.418C210.919 320.418 211.591 320.6 212.179 320.964C212.767 321.319 213.22 321.799 213.537 322.406C213.855 323.003 214.013 323.666 214.013 324.394ZM210.163 321.818C209.585 321.818 209.09 321.981 208.679 322.308C208.278 322.635 208.012 323.083 207.881 323.652H212.459C212.366 323.269 212.212 322.943 211.997 322.672C211.783 322.392 211.517 322.182 211.199 322.042C210.891 321.893 210.546 321.818 210.163 321.818ZM221.249 317.884H222.803V328.16H221.627L221.431 327.306C220.703 327.997 219.812 328.342 218.757 328.342C217.619 328.342 216.676 327.969 215.929 327.222C215.192 326.466 214.823 325.519 214.823 324.38C214.823 323.241 215.192 322.299 215.929 321.552C216.676 320.796 217.619 320.418 218.757 320.418C219.719 320.418 220.549 320.712 221.249 321.3V317.884ZM217.119 326.158C217.586 326.625 218.174 326.858 218.883 326.858C219.593 326.858 220.181 326.625 220.647 326.158C221.123 325.682 221.361 325.089 221.361 324.38C221.361 323.913 221.254 323.493 221.039 323.12C220.825 322.737 220.526 322.439 220.143 322.224C219.77 322.009 219.35 321.902 218.883 321.902C218.417 321.902 217.992 322.009 217.609 322.224C217.236 322.439 216.942 322.737 216.727 323.12C216.522 323.493 216.419 323.913 216.419 324.38C216.419 325.089 216.653 325.682 217.119 326.158Z" fill="#222222"/>
<g opacity="0.1">
<circle cx="157" cy="193.418" r="49.5857" stroke="#222222" stroke-width="0.5"/>
<circle cx="156.999" cy="193.417" r="39.257" stroke="#222222" stroke-width="0.5"/>
<circle cx="156.999" cy="193.417" r="26.8627" stroke="#222222" stroke-width="0.5"/>
</g>
<rect x="129.887" y="173.535" width="10.3286" height="10.3286" rx="5.16432" fill="#222222" fill-opacity="0.19"/>
<path d="M135.05 178.273C135.72 178.273 136.262 177.732 136.262 177.066C136.262 176.399 135.72 175.858 135.05 175.858C134.381 175.858 133.838 176.399 133.838 177.066C133.838 177.732 134.381 178.273 135.05 178.273ZM135.564 178.355H134.536C133.68 178.355 132.984 179.049 132.984 179.901V181.154L132.988 181.173L133.074 181.2C133.891 181.454 134.6 181.539 135.184 181.539C136.324 181.539 136.985 181.215 137.026 181.195L137.107 181.154H137.116V179.901C137.116 179.049 136.42 178.355 135.564 178.355Z" fill="#222222"/>
<rect x="178.949" y="186.446" width="10.3286" height="10.3286" rx="5.16432" fill="#222222" fill-opacity="0.19"/>
<path d="M184.113 191.184C184.782 191.184 185.325 190.643 185.325 189.977C185.325 189.31 184.782 188.77 184.113 188.77C183.444 188.77 182.901 189.31 182.901 189.977C182.901 190.643 183.444 191.184 184.113 191.184ZM184.627 191.266H183.599C182.743 191.266 182.047 191.96 182.047 192.812V194.065L182.05 194.084L182.137 194.111C182.953 194.366 183.663 194.45 184.247 194.45C185.387 194.45 186.048 194.126 186.089 194.106L186.17 194.065H186.178V192.812C186.179 191.96 185.483 191.266 184.627 191.266Z" fill="#222222"/>
<rect x="175.852" y="155.977" width="10.3286" height="10.3286" rx="5.16432" fill="#222222" fill-opacity="0.19"/>
<path d="M181.019 160.715C181.688 160.715 182.231 160.175 182.231 159.508C182.231 158.841 181.688 158.301 181.019 158.301C180.35 158.301 179.807 158.841 179.807 159.508C179.807 160.175 180.35 160.715 181.019 160.715ZM181.533 160.797H180.505C179.649 160.797 178.953 161.491 178.953 162.343V163.596L178.956 163.616L179.043 163.643C179.859 163.897 180.569 163.982 181.153 163.982C182.293 163.982 182.954 163.658 182.995 163.637L183.076 163.596H183.085V162.343C183.085 161.491 182.389 160.797 181.533 160.797Z" fill="#222222"/>
<rect x="129.887" y="220.53" width="10.3286" height="10.3286" rx="5.16432" fill="#222222" fill-opacity="0.19"/>
<path d="M135.05 225.268C135.72 225.268 136.262 224.727 136.262 224.061C136.262 223.394 135.72 222.854 135.05 222.854C134.381 222.854 133.838 223.394 133.838 224.061C133.838 224.727 134.381 225.268 135.05 225.268ZM135.564 225.35H134.536C133.68 225.35 132.984 226.044 132.984 226.896V228.149L132.988 228.168L133.074 228.195C133.891 228.45 134.6 228.534 135.184 228.534C136.324 228.534 136.985 228.21 137.026 228.19L137.107 228.149H137.116V226.896C137.116 226.044 136.42 225.35 135.564 225.35Z" fill="#222222"/>
<rect x="135.051" y="141" width="10.3286" height="10.3286" rx="5.16432" fill="#222222" fill-opacity="0.19"/>
<path d="M140.214 145.738C140.884 145.738 141.426 145.197 141.426 144.53C141.426 143.864 140.884 143.323 140.214 143.323C139.545 143.323 139.002 143.864 139.002 144.53C139.002 145.197 139.545 145.738 140.214 145.738ZM140.728 145.82H139.7C138.845 145.82 138.148 146.513 138.148 147.366V148.618L138.152 148.638L138.238 148.665C139.055 148.919 139.764 149.004 140.348 149.004C141.489 149.004 142.15 148.68 142.19 148.659L142.271 148.619H142.28V147.366C142.28 146.513 141.584 145.82 140.728 145.82Z" fill="#222222"/>
<rect x="193.406" y="217.948" width="10.3286" height="10.3286" rx="5.16432" fill="#222222" fill-opacity="0.19"/>
<path d="M198.574 222.686C199.243 222.686 199.786 222.145 199.786 221.479C199.786 220.812 199.243 220.271 198.574 220.271C197.905 220.271 197.362 220.812 197.362 221.479C197.362 222.145 197.905 222.686 198.574 222.686ZM199.088 222.768H198.06C197.204 222.768 196.508 223.462 196.508 224.314V225.567L196.511 225.586L196.598 225.613C197.414 225.867 198.124 225.952 198.707 225.952C199.848 225.952 200.509 225.628 200.55 225.608L200.631 225.567H200.639V224.314C200.64 223.462 199.943 222.768 199.088 222.768Z" fill="#222222"/>
<rect x="201.672" y="173.535" width="10.3286" height="10.3286" rx="5.16432" fill="#222222" fill-opacity="0.19"/>
<path d="M206.839 178.274C207.509 178.274 208.051 177.733 208.051 177.067C208.051 176.4 207.509 175.859 206.839 175.859C206.17 175.859 205.627 176.4 205.627 177.067C205.627 177.733 206.17 178.274 206.839 178.274ZM207.353 178.356H206.325C205.47 178.356 204.773 179.05 204.773 179.902V181.155L204.777 181.174L204.863 181.201C205.68 181.455 206.389 181.54 206.973 181.54C208.114 181.54 208.775 181.216 208.815 181.196L208.896 181.155H208.905V179.902C208.905 179.05 208.209 178.356 207.353 178.356Z" fill="#222222"/>
<rect x="102" y="183.348" width="10.3286" height="10.3286" rx="5.16432" fill="#222222" fill-opacity="0.19"/>
<path d="M107.168 188.085C107.837 188.085 108.379 187.545 108.379 186.878C108.379 186.211 107.837 185.671 107.168 185.671C106.498 185.671 105.955 186.211 105.955 186.878C105.955 187.545 106.498 188.085 107.168 188.085ZM107.682 188.168H106.653C105.798 188.168 105.102 188.861 105.102 189.713V190.966L105.105 190.986L105.191 191.013C106.008 191.267 106.717 191.352 107.301 191.352C108.442 191.352 109.103 191.028 109.143 191.007L109.224 190.966H109.233V189.713C109.233 188.861 108.537 188.168 107.682 188.168Z" fill="#222222"/>
<rect x="157.258" y="238.089" width="10.3286" height="10.3286" rx="5.16432" fill="#222222" fill-opacity="0.19"/>
<path d="M162.421 242.827C163.091 242.827 163.633 242.287 163.633 241.62C163.633 240.954 163.091 240.413 162.421 240.413C161.752 240.413 161.209 240.954 161.209 241.62C161.209 242.287 161.752 242.827 162.421 242.827ZM162.936 242.91H161.907C161.052 242.91 160.355 243.603 160.355 244.456V245.708L160.359 245.728L160.445 245.755C161.262 246.009 161.971 246.094 162.555 246.094C163.696 246.094 164.357 245.77 164.397 245.749L164.478 245.709H164.487V244.456C164.487 243.603 163.791 242.91 162.936 242.91Z" fill="#222222"/>
<rect x="141.164" y="175.167" width="33.3333" height="33.3333" rx="16.6667" fill="#222222"/>
<path d="M159.727 186.674C160.575 187.215 161.17 188.131 161.278 189.194C161.623 189.359 162.007 189.454 162.414 189.454C163.899 189.454 165.103 188.228 165.103 186.715C165.103 185.203 163.899 183.977 162.414 183.977C160.943 183.977 159.75 185.181 159.727 186.674ZM157.966 192.281C159.451 192.281 160.655 191.055 160.655 189.542C160.655 188.03 159.451 186.804 157.966 186.804C156.481 186.804 155.277 188.03 155.277 189.543C155.277 191.055 156.481 192.281 157.966 192.281ZM159.106 192.468H156.825C154.927 192.468 153.382 194.041 153.382 195.974V198.816L153.389 198.861L153.582 198.922C155.393 199.499 156.967 199.691 158.262 199.691C160.793 199.691 162.259 198.956 162.35 198.909L162.529 198.817H162.548V195.974C162.549 194.041 161.005 192.468 159.106 192.468ZM163.555 189.64H161.291C161.267 190.563 160.88 191.394 160.268 191.991C161.956 192.502 163.19 194.096 163.19 195.979V196.854C165.426 196.771 166.714 196.126 166.799 196.082L166.978 195.99H166.997V193.147C166.997 191.213 165.453 189.64 163.555 189.64ZM153.248 189.454C153.774 189.454 154.263 189.298 154.678 189.031C154.81 188.156 155.271 187.391 155.929 186.87C155.932 186.818 155.936 186.768 155.936 186.716C155.936 185.203 154.732 183.977 153.248 183.977C151.763 183.977 150.559 185.203 150.559 186.716C150.559 188.228 151.763 189.454 153.248 189.454ZM155.663 191.991C155.054 191.397 154.669 190.571 154.641 189.654C154.557 189.647 154.474 189.64 154.388 189.64H152.107C150.208 189.64 148.664 191.213 148.664 193.147V195.989L148.671 196.033L148.863 196.095C150.317 196.557 151.614 196.77 152.74 196.837V195.979C152.741 194.096 153.975 192.503 155.663 191.991Z" fill="white"/>
</g>
<g filter="url(#filter1_d_3351_14680)">
<path d="M281 147C281 83.4873 332.487 32 396 32V32C459.513 32 511 83.4873 511 147V147C511 210.513 459.513 262 396 262V262C332.487 262 281 210.513 281 147V147Z" fill="white" fill-opacity="0.1" shape-rendering="crispEdges"/>
<path d="M366.867 124.391C364.497 124.391 362.46 124 360.754 123.219C359.061 122.424 357.811 121.331 357.004 119.938C356.21 118.544 355.969 116.943 356.281 115.133H364.133C364.029 115.693 364.1 116.194 364.348 116.637C364.595 117.079 364.979 117.424 365.5 117.672C366.021 117.906 366.62 118.023 367.297 118.023C368.117 118.023 368.853 117.861 369.504 117.535C370.168 117.21 370.708 116.78 371.125 116.246C371.555 115.712 371.815 115.159 371.906 114.586C372.01 113.974 371.906 113.479 371.594 113.102C371.294 112.711 370.845 112.424 370.246 112.242C369.66 112.047 368.964 111.956 368.156 111.969H365.031L365.93 106.5H368.742C369.549 106.5 370.285 106.357 370.949 106.07C371.626 105.771 372.18 105.367 372.609 104.859C373.052 104.339 373.326 103.753 373.43 103.102C373.573 102.333 373.423 101.721 372.98 101.266C372.538 100.81 371.815 100.589 370.812 100.602C370.096 100.589 369.4 100.712 368.723 100.973C368.059 101.233 367.499 101.591 367.043 102.047C366.587 102.49 366.32 103.01 366.242 103.609H358.742C359.029 101.826 359.758 100.25 360.93 98.8828C362.102 97.5156 363.579 96.4479 365.363 95.6797C367.16 94.8984 369.12 94.5078 371.242 94.5078C373.456 94.5078 375.337 94.918 376.887 95.7383C378.436 96.5456 379.576 97.6263 380.305 98.9805C381.034 100.322 381.268 101.786 381.008 103.375C380.721 105.081 379.947 106.376 378.684 107.262C377.421 108.147 375.839 108.674 373.938 108.844V109.039C376.008 109.286 377.609 110.048 378.742 111.324C379.875 112.6 380.292 114.169 379.992 116.031C379.732 117.62 378.99 119.046 377.766 120.309C376.555 121.572 375.005 122.568 373.117 123.297C371.242 124.026 369.159 124.391 366.867 124.391ZM393.742 124.781C391.099 124.781 388.911 124.176 387.18 122.965C385.448 121.754 384.25 120.009 383.586 117.73C382.935 115.439 382.883 112.698 383.43 109.508C383.977 106.305 384.953 103.59 386.359 101.363C387.779 99.1237 389.536 97.4245 391.633 96.2656C393.742 95.0938 396.112 94.5078 398.742 94.5078C401.385 94.5078 403.566 95.0938 405.285 96.2656C407.017 97.4245 408.215 99.1237 408.879 101.363C409.556 103.59 409.628 106.305 409.094 109.508C408.573 112.711 407.603 115.452 406.184 117.73C404.764 120.009 402.993 121.754 400.871 122.965C398.762 124.176 396.385 124.781 393.742 124.781ZM394.836 118.375C395.747 118.375 396.594 118.062 397.375 117.438C398.169 116.812 398.872 115.849 399.484 114.547C400.096 113.232 400.578 111.552 400.93 109.508C401.268 107.516 401.346 105.888 401.164 104.625C400.982 103.349 400.591 102.405 399.992 101.793C399.393 101.181 398.638 100.875 397.727 100.875C396.372 100.875 395.135 101.572 394.016 102.965C392.896 104.345 392.089 106.526 391.594 109.508C391.255 111.552 391.177 113.232 391.359 114.547C391.555 115.849 391.952 116.812 392.551 117.438C393.163 118.062 393.924 118.375 394.836 118.375ZM418.43 122.711L421.867 101.656H428.234L424.797 122.711H418.43ZM412.297 115.367L413.352 109H434.367L433.312 115.367H412.297Z" fill="#222222"/>
<g clip-path="url(#clip1_3351_14680)">
<path d="M339.594 140.938H339.094V142.344C339.094 142.602 338.884 142.812 338.625 142.812C338.366 142.812 338.156 142.602 338.156 142.344V140.938H336.281V142.344C336.281 142.602 336.071 142.812 335.812 142.812C335.554 142.812 335.344 142.602 335.344 142.344V140.938H333.469V142.344C333.469 142.602 333.259 142.812 333 142.812C332.741 142.812 332.531 142.602 332.531 142.344V140.938H330.656V142.344C330.656 142.602 330.446 142.812 330.188 142.812C329.929 142.812 329.719 142.602 329.719 142.344V140.938H327.844V142.344C327.844 142.602 327.634 142.812 327.375 142.812C327.116 142.812 326.906 142.602 326.906 142.344V140.938H326.406C325.631 140.938 325 141.568 325 142.344V144.688H341V142.344C341 141.568 340.369 140.938 339.594 140.938Z" fill="#222222"/>
<path d="M334.875 151.719C335.133 151.719 335.344 151.508 335.344 151.25V149.375C335.344 149.117 335.133 148.906 334.875 148.906C334.617 148.906 334.406 149.117 334.406 149.375V151.25C334.406 151.508 334.617 151.719 334.875 151.719Z" fill="#222222"/>
<path d="M325 154.594C325 155.369 325.631 156 326.406 156H339.594C340.369 156 341 155.369 341 154.594V145.625H325V154.594ZM333.469 149.375C333.469 148.6 334.1 147.969 334.875 147.969C335.65 147.969 336.281 148.6 336.281 149.375V151.25C336.281 152.025 335.65 152.656 334.875 152.656C334.1 152.656 333.469 152.025 333.469 151.25V149.375ZM331.125 150.812C330.866 150.812 330.656 150.603 330.656 150.344C330.656 150.085 330.866 149.875 331.125 149.875C331.383 149.875 331.594 149.665 331.594 149.406C331.594 149.148 331.383 148.938 331.125 148.938C330.867 148.938 330.656 149.148 330.656 149.406C330.656 149.665 330.446 149.875 330.188 149.875C329.929 149.875 329.719 149.665 329.719 149.406C329.719 148.631 330.35 148 331.125 148C331.9 148 332.531 148.631 332.531 149.406C332.531 149.766 332.395 150.095 332.172 150.344C332.395 150.593 332.531 150.921 332.531 151.281C332.531 152.057 331.9 152.688 331.125 152.688C330.35 152.688 329.719 152.057 329.719 151.281C329.719 151.022 329.929 150.812 330.188 150.812C330.446 150.812 330.656 151.022 330.656 151.281C330.656 151.54 330.867 151.75 331.125 151.75C331.383 151.75 331.594 151.54 331.594 151.281C331.594 151.023 331.383 150.812 331.125 150.812Z" fill="#222222"/>
<path d="M327.844 140.469C327.844 140.21 327.634 140 327.375 140C327.116 140 326.906 140.21 326.906 140.469V140.938H327.844V140.469Z" fill="#222222"/>
<path d="M330.656 140.469C330.656 140.21 330.446 140 330.188 140C329.929 140 329.719 140.21 329.719 140.469V140.938H330.656V140.469Z" fill="#222222"/>
<path d="M333.469 140.469C333.469 140.21 333.259 140 333 140C332.741 140 332.531 140.21 332.531 140.469V140.938H333.469V140.469Z" fill="#222222"/>
<path d="M336.281 140.469C336.281 140.21 336.071 140 335.812 140C335.554 140 335.344 140.21 335.344 140.469V140.938H336.281V140.469Z" fill="#222222"/>
<path d="M339.094 140.469C339.094 140.21 338.884 140 338.625 140C338.366 140 338.156 140.21 338.156 140.469V140.938H339.094V140.469Z" fill="#222222"/>
</g>
<rect width="127" height="1" transform="matrix(-1 0 0 1 468 147.5)" fill="url(#paint2_linear_3351_14680)"/>
<path opacity="0.6" d="M348.3 174.272C349.093 174.272 349.737 174.543 350.232 175.084C350.726 175.625 350.974 176.33 350.974 177.198V182H349.42V177.576C349.42 177.175 349.359 176.829 349.238 176.54C349.126 176.251 348.958 176.031 348.734 175.882C348.519 175.733 348.258 175.658 347.95 175.658C347.436 175.658 347.012 175.868 346.676 176.288C346.34 176.699 346.172 177.226 346.172 177.87V182H344.646V177.576C344.646 176.96 344.52 176.489 344.268 176.162C344.016 175.826 343.652 175.658 343.176 175.658C342.672 175.658 342.247 175.868 341.902 176.288C341.566 176.699 341.398 177.226 341.398 177.87V182H339.844V174.44H340.95L341.216 175.42C341.505 175.056 341.855 174.776 342.266 174.58C342.676 174.375 343.11 174.272 343.568 174.272C344.072 174.272 344.52 174.389 344.912 174.622C345.304 174.855 345.612 175.177 345.836 175.588C346.106 175.177 346.461 174.855 346.9 174.622C347.338 174.389 347.805 174.272 348.3 174.272ZM359.168 181.062C358.403 181.809 357.441 182.182 356.284 182.182C355.127 182.182 354.161 181.809 353.386 181.062C352.621 180.306 352.238 179.359 352.238 178.22C352.238 177.473 352.411 176.797 352.756 176.19C353.111 175.583 353.596 175.112 354.212 174.776C354.837 174.431 355.528 174.258 356.284 174.258C357.04 174.258 357.726 174.431 358.342 174.776C358.967 175.112 359.453 175.583 359.798 176.19C360.153 176.797 360.33 177.473 360.33 178.22C360.33 179.359 359.943 180.306 359.168 181.062ZM356.284 180.698C356.76 180.698 357.185 180.595 357.558 180.39C357.931 180.175 358.221 179.881 358.426 179.508C358.641 179.125 358.748 178.696 358.748 178.22C358.748 177.501 358.515 176.909 358.048 176.442C357.591 175.975 357.003 175.742 356.284 175.742C355.565 175.742 354.973 175.975 354.506 176.442C354.049 176.909 353.82 177.501 353.82 178.22C353.82 178.939 354.049 179.531 354.506 179.998C354.973 180.465 355.565 180.698 356.284 180.698ZM365.71 174.272C366.587 174.272 367.282 174.566 367.796 175.154C368.318 175.742 368.58 176.507 368.58 177.45V182H367.026V177.758C367.026 177.077 366.876 176.559 366.578 176.204C366.288 175.84 365.859 175.658 365.29 175.658C364.702 175.658 364.216 175.873 363.834 176.302C363.451 176.731 363.26 177.282 363.26 177.954V182H361.706V174.44H362.784L363.092 175.49C363.381 175.107 363.75 174.809 364.198 174.594C364.655 174.379 365.159 174.272 365.71 174.272ZM373.714 180.586H374.568V182H373.42C372.869 182 372.393 181.893 371.992 181.678C371.59 181.463 371.282 181.155 371.068 180.754C370.853 180.343 370.746 179.863 370.746 179.312V175.77H369.388V175.476L372.02 172.676H372.286V174.44H374.526V175.77H372.3V179.186C372.3 179.634 372.421 179.979 372.664 180.222C372.906 180.465 373.256 180.586 373.714 180.586ZM379.806 174.272C380.692 174.272 381.392 174.557 381.906 175.126C382.419 175.695 382.676 176.47 382.676 177.45V182H381.122V177.758C381.122 177.301 381.056 176.918 380.926 176.61C380.795 176.302 380.599 176.069 380.338 175.91C380.086 175.742 379.768 175.658 379.386 175.658C378.798 175.658 378.312 175.873 377.93 176.302C377.547 176.731 377.356 177.282 377.356 177.954V182H375.802V171.724H377.356V175.294C377.972 174.613 378.788 174.272 379.806 174.272ZM387.024 182.182C386.1 182.182 385.358 181.949 384.798 181.482C384.238 181.015 383.949 180.39 383.93 179.606H385.456C385.475 179.989 385.629 180.287 385.918 180.502C386.217 180.707 386.604 180.81 387.08 180.81C387.36 180.81 387.608 180.773 387.822 180.698C388.046 180.623 388.224 180.511 388.354 180.362C388.485 180.213 388.55 180.035 388.55 179.83C388.55 179.69 388.518 179.569 388.452 179.466C388.387 179.354 388.308 179.265 388.214 179.2C388.121 179.135 387.986 179.074 387.808 179.018C387.64 178.962 387.486 178.92 387.346 178.892C387.216 178.864 387.038 178.831 386.814 178.794C386.581 178.757 386.394 178.724 386.254 178.696C386.114 178.668 385.937 178.626 385.722 178.57C385.508 178.505 385.33 178.439 385.19 178.374C385.06 178.299 384.915 178.206 384.756 178.094C384.598 177.982 384.472 177.856 384.378 177.716C384.294 177.576 384.22 177.408 384.154 177.212C384.098 177.007 384.07 176.783 384.07 176.54C384.07 175.859 384.336 175.308 384.868 174.888C385.41 174.468 386.119 174.258 386.996 174.258C387.874 174.258 388.578 174.477 389.11 174.916C389.642 175.355 389.913 175.943 389.922 176.68H388.452C388.443 176.325 388.308 176.055 388.046 175.868C387.785 175.672 387.426 175.574 386.968 175.574C386.539 175.574 386.198 175.658 385.946 175.826C385.694 175.994 385.568 176.213 385.568 176.484C385.568 176.596 385.587 176.694 385.624 176.778C385.662 176.862 385.722 176.937 385.806 177.002C385.9 177.067 385.984 177.123 386.058 177.17C386.142 177.207 386.264 177.245 386.422 177.282C386.581 177.319 386.712 177.347 386.814 177.366C386.917 177.385 387.066 177.408 387.262 177.436C387.514 177.483 387.701 177.52 387.822 177.548C387.953 177.567 388.135 177.609 388.368 177.674C388.602 177.73 388.784 177.791 388.914 177.856C389.045 177.921 389.194 178.015 389.362 178.136C389.54 178.248 389.67 178.379 389.754 178.528C389.848 178.668 389.927 178.845 389.992 179.06C390.058 179.275 390.09 179.508 390.09 179.76C390.09 180.497 389.81 181.085 389.25 181.524C388.69 181.963 387.948 182.182 387.024 182.182ZM401.088 181.062C400.322 181.809 399.361 182.182 398.204 182.182C397.046 182.182 396.08 181.809 395.306 181.062C394.54 180.306 394.158 179.359 394.158 178.22C394.158 177.473 394.33 176.797 394.676 176.19C395.03 175.583 395.516 175.112 396.132 174.776C396.757 174.431 397.448 174.258 398.204 174.258C398.96 174.258 399.646 174.431 400.262 174.776C400.887 175.112 401.372 175.583 401.718 176.19C402.072 176.797 402.25 177.473 402.25 178.22C402.25 179.359 401.862 180.306 401.088 181.062ZM398.204 180.698C398.68 180.698 399.104 180.595 399.478 180.39C399.851 180.175 400.14 179.881 400.346 179.508C400.56 179.125 400.668 178.696 400.668 178.22C400.668 177.501 400.434 176.909 399.968 176.442C399.51 175.975 398.922 175.742 398.204 175.742C397.485 175.742 396.892 175.975 396.426 176.442C395.968 176.909 395.74 177.501 395.74 178.22C395.74 178.939 395.968 179.531 396.426 179.998C396.892 180.465 397.485 180.698 398.204 180.698ZM407.786 174.51V175.798H405.658V182H404.104V175.798H402.69V174.51H404.104V173.866C404.104 172.27 404.907 171.472 406.512 171.472H407.772V172.718H406.82C406.391 172.718 406.078 172.811 405.882 172.998C405.695 173.185 405.602 173.488 405.602 173.908V174.51H407.786ZM422.248 180.586H423.102V182H421.954C421.123 182 420.465 181.762 419.98 181.286C419.504 180.801 419.266 180.143 419.266 179.312V175.77H417.922V175.476L420.554 172.676H420.806V174.44H423.06V175.77H420.82V179.186C420.82 179.634 420.941 179.979 421.184 180.222C421.436 180.465 421.791 180.586 422.248 180.586ZM414.45 177.436C414.702 177.483 414.889 177.52 415.01 177.548C415.131 177.567 415.309 177.609 415.542 177.674C415.785 177.73 415.971 177.791 416.102 177.856C416.233 177.921 416.382 178.015 416.55 178.136C416.727 178.248 416.858 178.379 416.942 178.528C417.035 178.668 417.115 178.845 417.18 179.06C417.245 179.275 417.278 179.508 417.278 179.76C417.278 180.497 416.998 181.085 416.438 181.524C415.878 181.963 415.136 182.182 414.212 182.182C413.288 182.182 412.546 181.949 411.986 181.482C411.426 181.015 411.137 180.39 411.118 179.606H412.644C412.663 179.989 412.817 180.287 413.106 180.502C413.405 180.707 413.792 180.81 414.268 180.81C414.548 180.81 414.795 180.773 415.01 180.698C415.234 180.623 415.411 180.511 415.542 180.362C415.673 180.213 415.738 180.035 415.738 179.83C415.738 179.718 415.719 179.615 415.682 179.522C415.645 179.429 415.579 179.349 415.486 179.284C415.402 179.209 415.313 179.149 415.22 179.102C415.127 179.055 415.005 179.013 414.856 178.976C414.707 178.929 414.571 178.897 414.45 178.878C414.338 178.85 414.189 178.822 414.002 178.794C413.806 178.757 413.643 178.729 413.512 178.71C413.391 178.682 413.232 178.645 413.036 178.598C412.849 178.551 412.695 178.5 412.574 178.444C412.453 178.388 412.313 178.323 412.154 178.248C412.005 178.164 411.883 178.071 411.79 177.968C411.697 177.856 411.603 177.735 411.51 177.604C411.426 177.464 411.361 177.305 411.314 177.128C411.277 176.951 411.258 176.755 411.258 176.54C411.258 175.859 411.524 175.308 412.056 174.888C412.597 174.468 413.307 174.258 414.184 174.258C415.061 174.258 415.766 174.477 416.298 174.916C416.83 175.355 417.101 175.943 417.11 176.68H415.64C415.631 176.325 415.495 176.055 415.234 175.868C414.973 175.672 414.613 175.574 414.156 175.574C413.727 175.574 413.386 175.658 413.134 175.826C412.882 175.994 412.756 176.213 412.756 176.484C412.756 176.596 412.775 176.694 412.812 176.778C412.849 176.862 412.91 176.937 412.994 177.002C413.087 177.067 413.171 177.123 413.246 177.17C413.33 177.207 413.451 177.245 413.61 177.282C413.769 177.319 413.899 177.347 414.002 177.366C414.105 177.385 414.254 177.408 414.45 177.436ZM430.838 174.44H432.042V182H430.782L430.628 181.076C429.9 181.813 428.99 182.182 427.898 182.182C426.768 182.182 425.826 181.804 425.07 181.048C424.323 180.292 423.95 179.349 423.95 178.22C423.95 177.081 424.323 176.139 425.07 175.392C425.826 174.636 426.768 174.258 427.898 174.258C429.008 174.258 429.928 174.631 430.656 175.378L430.838 174.44ZM426.232 179.998C426.708 180.465 427.3 180.698 428.01 180.698C428.728 180.698 429.316 180.465 429.774 179.998C430.24 179.522 430.474 178.929 430.474 178.22C430.474 177.501 430.24 176.909 429.774 176.442C429.316 175.975 428.728 175.742 428.01 175.742C427.543 175.742 427.118 175.849 426.736 176.064C426.362 176.279 426.068 176.577 425.854 176.96C425.639 177.333 425.532 177.753 425.532 178.22C425.532 178.929 425.765 179.522 426.232 179.998ZM438.024 174.258C439.163 174.258 440.101 174.636 440.838 175.392C441.585 176.139 441.958 177.081 441.958 178.22C441.958 179.359 441.585 180.306 440.838 181.062C440.101 181.809 439.163 182.182 438.024 182.182C436.969 182.182 436.078 181.837 435.35 181.146L435.154 182H433.978V171.724H435.532V175.14C436.232 174.552 437.063 174.258 438.024 174.258ZM436.12 179.984C436.596 180.46 437.189 180.698 437.898 180.698C438.607 180.698 439.195 180.465 439.662 179.998C440.129 179.522 440.362 178.929 440.362 178.22C440.362 177.511 440.129 176.923 439.662 176.456C439.195 175.98 438.607 175.742 437.898 175.742C437.431 175.742 437.007 175.849 436.624 176.064C436.251 176.279 435.957 176.577 435.742 176.96C435.527 177.333 435.42 177.753 435.42 178.22C435.42 178.92 435.653 179.508 436.12 179.984ZM443.337 182V171.724H444.891V182H443.337ZM453.998 178.234C453.998 178.374 453.989 178.547 453.97 178.752H447.838C447.932 179.359 448.184 179.839 448.594 180.194C449.014 180.549 449.532 180.726 450.148 180.726C450.447 180.726 450.727 180.684 450.988 180.6C451.25 180.507 451.478 180.381 451.674 180.222C451.88 180.054 452.048 179.853 452.178 179.62H453.816C453.518 180.423 453.042 181.053 452.388 181.51C451.735 181.958 450.988 182.182 450.148 182.182C449.038 182.182 448.109 181.804 447.362 181.048C446.625 180.292 446.256 179.349 446.256 178.22C446.256 177.091 446.625 176.148 447.362 175.392C448.109 174.636 449.038 174.258 450.148 174.258C450.904 174.258 451.576 174.44 452.164 174.804C452.752 175.159 453.205 175.639 453.522 176.246C453.84 176.843 453.998 177.506 453.998 178.234ZM450.148 175.658C449.57 175.658 449.075 175.821 448.664 176.148C448.263 176.475 447.997 176.923 447.866 177.492H452.444C452.351 177.109 452.197 176.783 451.982 176.512C451.768 176.232 451.502 176.022 451.184 175.882C450.876 175.733 450.531 175.658 450.148 175.658ZM356.079 191.258C356.826 191.258 357.498 191.431 358.095 191.776C358.693 192.112 359.159 192.583 359.495 193.19C359.831 193.797 359.999 194.473 359.999 195.22C359.999 196.359 359.626 197.306 358.879 198.062C358.142 198.809 357.209 199.182 356.079 199.182C355.109 199.182 354.273 198.879 353.573 198.272V201.716H352.019V191.44H353.069L353.363 192.364C354.091 191.627 354.997 191.258 356.079 191.258ZM354.189 196.998C354.656 197.465 355.244 197.698 355.953 197.698C356.672 197.698 357.265 197.465 357.731 196.998C358.198 196.522 358.431 195.929 358.431 195.22C358.431 194.511 358.198 193.923 357.731 193.456C357.265 192.98 356.677 192.742 355.967 192.742C355.501 192.742 355.076 192.849 354.693 193.064C354.311 193.279 354.012 193.577 353.797 193.96C353.592 194.333 353.489 194.753 353.489 195.22C353.489 195.929 353.723 196.522 354.189 196.998ZM368.574 195.234C368.574 195.374 368.564 195.547 368.546 195.752H362.414C362.507 196.359 362.759 196.839 363.17 197.194C363.59 197.549 364.108 197.726 364.724 197.726C365.022 197.726 365.302 197.684 365.564 197.6C365.825 197.507 366.054 197.381 366.25 197.222C366.455 197.054 366.623 196.853 366.754 196.62H368.392C368.093 197.423 367.617 198.053 366.964 198.51C366.31 198.958 365.564 199.182 364.724 199.182C363.613 199.182 362.684 198.804 361.938 198.048C361.2 197.292 360.832 196.349 360.832 195.22C360.832 194.091 361.2 193.148 361.938 192.392C362.684 191.636 363.613 191.258 364.724 191.258C365.48 191.258 366.152 191.44 366.74 191.804C367.328 192.159 367.78 192.639 368.098 193.246C368.415 193.843 368.574 194.506 368.574 195.234ZM364.724 192.658C364.145 192.658 363.65 192.821 363.24 193.148C362.838 193.475 362.572 193.923 362.442 194.492H367.02C366.926 194.109 366.772 193.783 366.558 193.512C366.343 193.232 366.077 193.022 365.76 192.882C365.452 192.733 365.106 192.658 364.724 192.658ZM379.842 191.44V192.756H377.7V199H376.146V192.756H374.732V191.44H376.16V190.866C376.16 189.27 376.962 188.472 378.568 188.472H379.828V189.718H378.862C378.442 189.718 378.134 189.811 377.938 189.998C377.751 190.185 377.658 190.488 377.658 190.908V191.44H379.842ZM371.26 192.49C371.801 191.781 372.571 191.426 373.57 191.426H374.2V192.868H373.43C372.142 192.887 371.498 193.587 371.498 194.968V199H369.944V191.44H370.994L371.26 192.49ZM387.04 198.062C386.274 198.809 385.313 199.182 384.156 199.182C382.998 199.182 382.032 198.809 381.258 198.062C380.492 197.306 380.11 196.359 380.11 195.22C380.11 194.473 380.282 193.797 380.628 193.19C380.982 192.583 381.468 192.112 382.084 191.776C382.709 191.431 383.4 191.258 384.156 191.258C384.912 191.258 385.598 191.431 386.214 191.776C386.839 192.112 387.324 192.583 387.67 193.19C388.024 193.797 388.202 194.473 388.202 195.22C388.202 196.359 387.814 197.306 387.04 198.062ZM384.156 197.698C384.632 197.698 385.056 197.595 385.43 197.39C385.803 197.175 386.092 196.881 386.298 196.508C386.512 196.125 386.62 195.696 386.62 195.22C386.62 194.501 386.386 193.909 385.92 193.442C385.462 192.975 384.874 192.742 384.156 192.742C383.437 192.742 382.844 192.975 382.378 193.442C381.92 193.909 381.692 194.501 381.692 195.22C381.692 195.939 381.92 196.531 382.378 196.998C382.844 197.465 383.437 197.698 384.156 197.698ZM393.203 191.398H393.875V192.868H393.063C391.775 192.868 391.131 193.568 391.131 194.968V199H389.577V191.44H390.627L390.893 192.476C391.434 191.757 392.204 191.398 393.203 191.398ZM403.263 191.272C404.056 191.272 404.7 191.543 405.195 192.084C405.689 192.625 405.937 193.33 405.937 194.198V199H404.383V194.576C404.383 194.175 404.322 193.829 404.201 193.54C404.089 193.251 403.921 193.031 403.697 192.882C403.482 192.733 403.221 192.658 402.913 192.658C402.399 192.658 401.975 192.868 401.639 193.288C401.303 193.699 401.135 194.226 401.135 194.87V199H399.609V194.576C399.609 193.96 399.483 193.489 399.231 193.162C398.979 192.826 398.615 192.658 398.139 192.658C397.635 192.658 397.21 192.868 396.865 193.288C396.529 193.699 396.361 194.226 396.361 194.87V199H394.807V191.44H395.913L396.179 192.42C396.468 192.056 396.818 191.776 397.229 191.58C397.639 191.375 398.073 191.272 398.531 191.272C399.035 191.272 399.483 191.389 399.875 191.622C400.267 191.855 400.575 192.177 400.799 192.588C401.069 192.177 401.424 191.855 401.863 191.622C402.301 191.389 402.768 191.272 403.263 191.272ZM414.089 191.44H415.293V199H414.033L413.879 198.076C413.151 198.813 412.241 199.182 411.149 199.182C410.02 199.182 409.077 198.804 408.321 198.048C407.575 197.292 407.201 196.349 407.201 195.22C407.201 194.081 407.575 193.139 408.321 192.392C409.077 191.636 410.02 191.258 411.149 191.258C412.26 191.258 413.179 191.631 413.907 192.378L414.089 191.44ZM409.483 196.998C409.959 197.465 410.552 197.698 411.261 197.698C411.98 197.698 412.568 197.465 413.025 196.998C413.492 196.522 413.725 195.929 413.725 195.22C413.725 194.501 413.492 193.909 413.025 193.442C412.568 192.975 411.98 192.742 411.261 192.742C410.795 192.742 410.37 192.849 409.987 193.064C409.614 193.279 409.32 193.577 409.105 193.96C408.891 194.333 408.783 194.753 408.783 195.22C408.783 195.929 409.017 196.522 409.483 196.998ZM421.233 191.272C422.111 191.272 422.806 191.566 423.319 192.154C423.842 192.742 424.103 193.507 424.103 194.45V199H422.549V194.758C422.549 194.077 422.4 193.559 422.101 193.204C421.812 192.84 421.383 192.658 420.813 192.658C420.225 192.658 419.74 192.873 419.357 193.302C418.975 193.731 418.783 194.282 418.783 194.954V199H417.229V191.44H418.307L418.615 192.49C418.905 192.107 419.273 191.809 419.721 191.594C420.179 191.379 420.683 191.272 421.233 191.272ZM429.334 199.182C428.214 199.182 427.271 198.804 426.506 198.048C425.75 197.283 425.372 196.34 425.372 195.22C425.372 194.091 425.75 193.148 426.506 192.392C427.271 191.636 428.218 191.258 429.348 191.258C430.272 191.258 431.074 191.519 431.756 192.042C432.437 192.565 432.88 193.26 433.086 194.128H431.546C431.35 193.699 431.056 193.363 430.664 193.12C430.272 192.868 429.828 192.742 429.334 192.742C428.895 192.742 428.494 192.849 428.13 193.064C427.766 193.279 427.476 193.577 427.262 193.96C427.056 194.333 426.954 194.753 426.954 195.22C426.954 195.92 427.182 196.508 427.64 196.984C428.097 197.46 428.662 197.698 429.334 197.698C429.828 197.698 430.267 197.572 430.65 197.32C431.042 197.068 431.34 196.709 431.546 196.242H433.114C432.899 197.129 432.446 197.843 431.756 198.384C431.074 198.916 430.267 199.182 429.334 199.182ZM441.543 195.234C441.543 195.374 441.533 195.547 441.515 195.752H435.383C435.476 196.359 435.728 196.839 436.139 197.194C436.559 197.549 437.077 197.726 437.693 197.726C437.991 197.726 438.271 197.684 438.533 197.6C438.794 197.507 439.023 197.381 439.219 197.222C439.424 197.054 439.592 196.853 439.723 196.62H441.361C441.062 197.423 440.586 198.053 439.933 198.51C439.279 198.958 438.533 199.182 437.693 199.182C436.582 199.182 435.653 198.804 434.907 198.048C434.169 197.292 433.801 196.349 433.801 195.22C433.801 194.091 434.169 193.148 434.907 192.392C435.653 191.636 436.582 191.258 437.693 191.258C438.449 191.258 439.121 191.44 439.709 191.804C440.297 192.159 440.749 192.639 441.067 193.246C441.384 193.843 441.543 194.506 441.543 195.234ZM437.693 192.658C437.114 192.658 436.619 192.821 436.209 193.148C435.807 193.475 435.541 193.923 435.411 194.492H439.989C439.895 194.109 439.741 193.783 439.527 193.512C439.312 193.232 439.046 193.022 438.729 192.882C438.421 192.733 438.075 192.658 437.693 192.658Z" fill="#222222"/>
</g>
<g filter="url(#filter2_d_3351_14680)">
<rect x="212" y="301" width="299" height="299" rx="149.5" fill="white" fill-opacity="0.1" shape-rendering="crispEdges"/>
<g clip-path="url(#clip2_3351_14680)">
<path d="M311.438 375C306.471 375 301 376.236 301 378.812C301 381.389 306.471 382.562 311.438 382.562C316.404 382.562 321.75 381.389 321.75 378.812C321.75 376.236 316.404 375 311.438 375Z" fill="#222222"/>
<path d="M311.438 384.438C306.469 384.438 301 383.256 301 380.688V382.562C301 385.131 306.469 386.312 311.438 386.312C316.406 386.312 321.75 385.131 321.75 382.562V380.688C321.75 383.256 316.406 384.438 311.438 384.438Z" fill="#222222"/>
<path d="M322.688 386.312C321.947 386.312 321.248 386.383 320.628 386.519C315.846 387.483 312.375 391.733 312.375 396.625C312.375 399.611 313.661 402.502 315.901 404.442C317.785 406.092 320.194 407 322.688 407C328.374 407 333 402.311 333 396.625C333 390.939 328.374 386.312 322.688 386.312ZM322.142 395.688H324.562C325.081 395.688 325.5 396.107 325.5 396.625C325.5 397.143 325.081 397.562 324.562 397.562H322.225C322.152 398.017 322.013 398.432 321.816 398.805C322.378 398.968 322.908 399.27 323.35 399.712C324.019 400.38 325.106 400.38 325.775 399.712C326.141 399.346 326.734 399.346 327.1 399.712C327.467 400.078 327.467 400.672 327.1 401.038C326.401 401.737 325.482 402.087 324.562 402.087C323.643 402.087 322.724 401.737 322.025 401.038C321.531 400.545 320.752 400.406 320.132 400.675C319.912 400.845 319.686 401.003 319.458 401.155C319.054 401.423 318.517 401.341 318.212 400.969C317.907 400.597 317.934 400.053 318.275 399.712C318.534 399.453 318.823 399.242 319.132 399.079C319.77 398.568 320.123 398.088 320.288 397.562H318.938C318.419 397.562 318 397.143 318 396.625C318 396.107 318.419 395.688 318.938 395.688H320.232L319.893 393.997C319.875 391.744 321.557 390.062 323.625 390.062C325.693 390.062 327.375 391.744 327.375 393.812C327.375 394.331 326.956 394.75 326.438 394.75C325.919 394.75 325.5 394.331 325.5 393.812C325.5 392.779 324.659 391.938 323.625 391.938C322.591 391.938 321.75 392.779 321.75 393.812L322.142 395.688Z" fill="#222222"/>
<path d="M312.404 403.143C312.081 403.154 311.758 403.188 311.438 403.188C306.469 403.188 301 402.006 301 399.438V401.312C301 403.881 306.469 405.125 311.438 405.125C312.242 405.125 313.03 405.08 313.803 405.019C313.275 404.46 312.813 403.787 312.404 403.143Z" fill="#222222"/>
<path d="M310.835 399.429C306.046 399.337 301 398.153 301 395.688V397.562C301 400.131 306.469 401.312 311.437 401.312C311.441 401.312 311.446 401.312 311.45 401.312C311.196 400.703 310.987 400.075 310.835 399.429Z" fill="#222222"/>
<path d="M310.584 395.675C305.876 395.547 301 394.36 301 391.938V393.813C301 396.229 305.853 397.417 310.55 397.549C310.526 397.242 310.5 396.936 310.5 396.625C310.5 396.302 310.559 395.993 310.584 395.675Z" fill="#222222"/>
<path d="M311.438 391.937C306.469 391.937 301 390.756 301 388.188V390.062C301 392.534 306.073 393.718 310.874 393.804C311.028 393.161 311.228 392.538 311.481 391.936C311.467 391.936 311.452 391.937 311.438 391.937Z" fill="#222222"/>
<path d="M321.742 384.483C321.744 384.483 321.746 384.483 321.748 384.483V384.438C321.748 384.453 321.743 384.468 321.742 384.483Z" fill="#222222"/>
<path d="M311.437 388.188C306.469 388.188 301 387.006 301 384.438V386.312C301 388.881 306.469 390.062 311.437 390.062C311.785 390.062 312.133 390.055 312.482 390.044C312.942 389.332 313.474 388.676 314.069 388.074C313.201 388.149 312.314 388.188 311.437 388.188Z" fill="#222222"/>
</g>
<path d="M430.665 399.287C402.121 400.323 402.005 420.463 375.295 431.115C348.585 441.767 319.905 417.377 293.188 448.797" stroke="url(#paint3_linear_3351_14680)" stroke-width="0.5"/>
<path d="M295.242 473.797L298.148 456.336H305.719C307.047 456.336 308.133 456.516 308.977 456.875C309.828 457.234 310.434 457.742 310.793 458.398C311.152 459.047 311.258 459.812 311.109 460.695C310.938 461.656 310.484 462.484 309.75 463.18C309.016 463.867 308.125 464.312 307.078 464.516L307.055 464.703C307.805 464.719 308.457 464.902 309.012 465.254C309.566 465.605 309.973 466.09 310.23 466.707C310.496 467.316 310.562 468.031 310.43 468.852C310.273 469.805 309.883 470.656 309.258 471.406C308.633 472.148 307.828 472.734 306.844 473.164C305.859 473.586 304.734 473.797 303.469 473.797H295.242ZM300.633 470.023H302.859C303.641 470.016 304.258 469.863 304.711 469.566C305.164 469.262 305.43 468.82 305.508 468.242C305.578 467.828 305.543 467.48 305.402 467.199C305.27 466.918 305.039 466.703 304.711 466.555C304.391 466.398 303.984 466.32 303.492 466.32H301.219L300.633 470.023ZM301.734 463.391H303.68C304.086 463.391 304.457 463.328 304.793 463.203C305.137 463.07 305.422 462.879 305.648 462.629C305.875 462.379 306.016 462.078 306.07 461.727C306.156 461.18 306.023 460.766 305.672 460.484C305.328 460.203 304.867 460.062 304.289 460.062H302.273L301.734 463.391ZM310.711 473.797L313.617 456.336H326.203L325.547 460.156H317.719L317.227 463.156H324.422L323.789 466.977H316.594L316.102 469.977H323.906L323.273 473.797H310.711ZM325.078 473.797L327.984 456.336H332.719L330.469 469.977H337.523L336.891 473.797H325.078ZM346.184 474.031C344.551 474.031 343.133 473.672 341.93 472.953C340.734 472.234 339.863 471.188 339.316 469.812C338.77 468.43 338.66 466.75 338.988 464.773C339.301 462.875 339.926 461.285 340.863 460.004C341.809 458.715 342.957 457.742 344.309 457.086C345.668 456.43 347.121 456.102 348.668 456.102C350.293 456.102 351.703 456.461 352.898 457.18C354.102 457.891 354.977 458.938 355.523 460.32C356.078 461.695 356.188 463.383 355.852 465.383C355.539 467.273 354.91 468.863 353.965 470.152C353.02 471.434 351.871 472.402 350.52 473.059C349.168 473.707 347.723 474.031 346.184 474.031ZM346.383 469.906C347.211 469.906 347.941 469.707 348.574 469.309C349.215 468.91 349.746 468.328 350.168 467.562C350.598 466.797 350.902 465.867 351.082 464.773C351.246 463.773 351.258 462.938 351.117 462.266C350.977 461.594 350.684 461.086 350.238 460.742C349.801 460.398 349.211 460.227 348.469 460.227C347.648 460.227 346.918 460.43 346.277 460.836C345.637 461.234 345.102 461.816 344.672 462.582C344.25 463.348 343.945 464.281 343.758 465.383C343.594 466.375 343.582 467.207 343.723 467.879C343.863 468.551 344.156 469.059 344.602 469.402C345.047 469.738 345.641 469.906 346.383 469.906ZM359.355 473.797L357.105 456.336H362.379L362.988 467.07H363.129L367.723 456.336H371.895L372.949 467.117H373.09L377.238 456.336H382.535L374.473 473.797H369.949L368.613 464.047H368.473L363.879 473.797H359.355ZM398.859 473.797H385.43L386.086 469.977H399.516L398.859 473.797ZM396.844 466.742H386.555L387.164 463.203H397.477L396.844 466.742ZM394.055 461.047L393.141 468.195C393.031 469.023 392.711 469.668 392.18 470.129C391.656 470.59 390.828 471.016 389.695 471.406L387.469 469.977C387.672 469.883 387.832 469.781 387.949 469.672C388.066 469.555 388.152 469.406 388.207 469.227C388.27 469.047 388.32 468.82 388.359 468.547L389.32 461.047C389.453 460.023 389.805 459.145 390.375 458.41C390.953 457.668 391.707 457.098 392.637 456.699C393.566 456.301 394.617 456.102 395.789 456.102C397.047 456.102 398.07 456.293 398.859 456.676C399.656 457.059 400.223 457.617 400.559 458.352C400.902 459.086 401.016 459.984 400.898 461.047L396.445 461.258C396.484 460.844 396.453 460.531 396.352 460.32C396.258 460.109 396.113 459.969 395.918 459.898C395.723 459.82 395.492 459.781 395.227 459.781C394.992 459.781 394.793 459.832 394.629 459.934C394.473 460.027 394.348 460.168 394.254 460.355C394.16 460.543 394.094 460.773 394.055 461.047ZM412.5 456.336L409.594 473.797H404.859L407.039 460.695H406.945L402.75 462.992L403.383 458.961L408.117 456.336H412.5ZM418.289 474.031C416.953 474.031 415.805 473.793 414.844 473.316C413.883 472.84 413.172 472.184 412.711 471.348C412.258 470.512 412.117 469.555 412.289 468.477H416.883C416.805 469.07 416.957 469.551 417.34 469.918C417.73 470.277 418.234 470.453 418.852 470.445C419.352 470.445 419.801 470.344 420.199 470.141C420.605 469.938 420.945 469.648 421.219 469.273C421.492 468.891 421.672 468.445 421.758 467.938C421.844 467.422 421.812 466.977 421.664 466.602C421.516 466.219 421.273 465.926 420.938 465.723C420.602 465.512 420.195 465.406 419.719 465.406C419.211 465.406 418.727 465.527 418.266 465.77C417.805 466.012 417.438 466.344 417.164 466.766L413.133 465.945L415.406 456.336H427.148L426.539 460.133H418.688L417.703 463.977H417.797C418.164 463.445 418.711 463.008 419.438 462.664C420.172 462.312 420.977 462.141 421.852 462.148C422.891 462.141 423.777 462.379 424.512 462.863C425.246 463.348 425.777 464.016 426.105 464.867C426.441 465.719 426.516 466.695 426.328 467.797C426.141 469.008 425.68 470.086 424.945 471.031C424.211 471.969 423.273 472.703 422.133 473.234C420.992 473.766 419.711 474.031 418.289 474.031Z" fill="#222222"/>
<path opacity="0.6" d="M310.296 495.965C308.849 495.965 307.645 495.489 306.684 494.537C305.732 493.576 305.256 492.362 305.256 490.897C305.256 489.432 305.732 488.223 306.684 487.271C307.645 486.31 308.849 485.829 310.296 485.829C311.061 485.829 311.771 485.978 312.424 486.277C313.077 486.576 313.623 487 314.062 487.551C314.51 488.102 314.818 488.741 314.986 489.469H313.362C313.129 488.816 312.741 488.307 312.2 487.943C311.659 487.57 311.024 487.383 310.296 487.383C309.316 487.383 308.504 487.714 307.86 488.377C307.216 489.04 306.894 489.884 306.894 490.911C306.894 491.928 307.216 492.768 307.86 493.431C308.504 494.084 309.316 494.411 310.296 494.411C311.043 494.411 311.691 494.215 312.242 493.823C312.793 493.422 313.175 492.876 313.39 492.185H315.028C314.776 493.333 314.221 494.252 313.362 494.943C312.503 495.624 311.481 495.965 310.296 495.965ZM320.074 485.997C320.699 485.997 321.264 486.137 321.768 486.417C322.281 486.697 322.683 487.084 322.972 487.579C323.261 488.074 323.406 488.624 323.406 489.231C323.406 490.155 323.089 490.925 322.454 491.541C321.819 492.157 321.026 492.465 320.074 492.465H318.058V495.797H316.448V485.997H320.074ZM319.99 490.939C320.251 490.939 320.489 490.897 320.704 490.813C320.928 490.729 321.119 490.612 321.278 490.463C321.437 490.314 321.558 490.132 321.642 489.917C321.735 489.702 321.782 489.474 321.782 489.231C321.782 488.904 321.703 488.615 321.544 488.363C321.395 488.102 321.185 487.896 320.914 487.747C320.643 487.598 320.335 487.523 319.99 487.523H318.058V490.939H319.99ZM330.79 495.797L329.936 493.669H325.568L324.728 495.797H323.02L326.968 485.997H328.48L332.526 495.797H330.79ZM327.738 488.097L326.128 492.227H329.376L327.738 488.097ZM339.788 495.979C338.668 495.979 337.725 495.601 336.96 494.845C336.204 494.08 335.826 493.137 335.826 492.017C335.826 490.888 336.204 489.945 336.96 489.189C337.725 488.433 338.672 488.055 339.802 488.055C340.726 488.055 341.528 488.316 342.21 488.839C342.891 489.362 343.334 490.057 343.54 490.925H342C341.804 490.496 341.51 490.16 341.118 489.917C340.726 489.665 340.282 489.539 339.788 489.539C339.349 489.539 338.948 489.646 338.584 489.861C338.22 490.076 337.93 490.374 337.716 490.757C337.51 491.13 337.408 491.55 337.408 492.017C337.408 492.717 337.636 493.305 338.094 493.781C338.551 494.257 339.116 494.495 339.788 494.495C340.282 494.495 340.721 494.369 341.104 494.117C341.496 493.865 341.794 493.506 342 493.039H343.568C343.353 493.926 342.9 494.64 342.21 495.181C341.528 495.713 340.721 495.979 339.788 495.979ZM351.185 494.859C350.419 495.606 349.458 495.979 348.301 495.979C347.143 495.979 346.177 495.606 345.403 494.859C344.637 494.103 344.255 493.156 344.255 492.017C344.255 491.27 344.427 490.594 344.773 489.987C345.127 489.38 345.613 488.909 346.229 488.573C346.854 488.228 347.545 488.055 348.301 488.055C349.057 488.055 349.743 488.228 350.359 488.573C350.984 488.909 351.469 489.38 351.815 489.987C352.169 490.594 352.347 491.27 352.347 492.017C352.347 493.156 351.959 494.103 351.185 494.859ZM348.301 494.495C348.777 494.495 349.201 494.392 349.575 494.187C349.948 493.972 350.237 493.678 350.443 493.305C350.657 492.922 350.765 492.493 350.765 492.017C350.765 491.298 350.531 490.706 350.065 490.239C349.607 489.772 349.019 489.539 348.301 489.539C347.582 489.539 346.989 489.772 346.523 490.239C346.065 490.706 345.837 491.298 345.837 492.017C345.837 492.736 346.065 493.328 346.523 493.795C346.989 494.262 347.582 494.495 348.301 494.495ZM357.726 488.069C358.604 488.069 359.299 488.363 359.812 488.951C360.335 489.539 360.596 490.304 360.596 491.247V495.797H359.042V491.555C359.042 490.874 358.893 490.356 358.594 490.001C358.305 489.637 357.876 489.455 357.306 489.455C356.718 489.455 356.233 489.67 355.85 490.099C355.468 490.528 355.276 491.079 355.276 491.751V495.797H353.722V488.237H354.8L355.108 489.287C355.398 488.904 355.766 488.606 356.214 488.391C356.672 488.176 357.176 488.069 357.726 488.069ZM364.945 495.979C364.021 495.979 363.279 495.746 362.719 495.279C362.159 494.812 361.869 494.187 361.851 493.403H363.377C363.395 493.786 363.549 494.084 363.839 494.299C364.137 494.504 364.525 494.607 365.001 494.607C365.281 494.607 365.528 494.57 365.743 494.495C365.967 494.42 366.144 494.308 366.275 494.159C366.405 494.01 366.471 493.832 366.471 493.627C366.471 493.487 366.438 493.366 366.373 493.263C366.307 493.151 366.228 493.062 366.135 492.997C366.041 492.932 365.906 492.871 365.729 492.815C365.561 492.759 365.407 492.717 365.267 492.689C365.136 492.661 364.959 492.628 364.735 492.591C364.501 492.554 364.315 492.521 364.175 492.493C364.035 492.465 363.857 492.423 363.643 492.367C363.428 492.302 363.251 492.236 363.111 492.171C362.98 492.096 362.835 492.003 362.677 491.891C362.518 491.779 362.392 491.653 362.299 491.513C362.215 491.373 362.14 491.205 362.075 491.009C362.019 490.804 361.991 490.58 361.991 490.337C361.991 489.656 362.257 489.105 362.789 488.685C363.33 488.265 364.039 488.055 364.917 488.055C365.794 488.055 366.499 488.274 367.031 488.713C367.563 489.152 367.833 489.74 367.843 490.477H366.373C366.363 490.122 366.228 489.852 365.967 489.665C365.705 489.469 365.346 489.371 364.889 489.371C364.459 489.371 364.119 489.455 363.867 489.623C363.615 489.791 363.489 490.01 363.489 490.281C363.489 490.393 363.507 490.491 363.545 490.575C363.582 490.659 363.643 490.734 363.727 490.799C363.82 490.864 363.904 490.92 363.979 490.967C364.063 491.004 364.184 491.042 364.343 491.079C364.501 491.116 364.632 491.144 364.735 491.163C364.837 491.182 364.987 491.205 365.183 491.233C365.435 491.28 365.621 491.317 365.743 491.345C365.873 491.364 366.055 491.406 366.289 491.471C366.522 491.527 366.704 491.588 366.835 491.653C366.965 491.718 367.115 491.812 367.283 491.933C367.46 492.045 367.591 492.176 367.675 492.325C367.768 492.465 367.847 492.642 367.913 492.857C367.978 493.072 368.011 493.305 368.011 493.557C368.011 494.294 367.731 494.882 367.171 495.321C366.611 495.76 365.869 495.979 364.945 495.979ZM369.363 487.061V485.465H370.973V487.061H369.363ZM369.391 495.797V488.237H370.945V495.797H369.391ZM383.427 494.383H384.281V495.797H383.133C382.302 495.797 381.644 495.559 381.159 495.083C380.683 494.598 380.445 493.94 380.445 493.109V489.567H379.101V489.273L381.733 486.473H381.985V488.237H384.239V489.567H381.999V492.983C381.999 493.431 382.12 493.776 382.363 494.019C382.615 494.262 382.969 494.383 383.427 494.383ZM375.629 491.233C375.881 491.28 376.067 491.317 376.189 491.345C376.31 491.364 376.487 491.406 376.721 491.471C376.963 491.527 377.15 491.588 377.281 491.653C377.411 491.718 377.561 491.812 377.729 491.933C377.906 492.045 378.037 492.176 378.121 492.325C378.214 492.465 378.293 492.642 378.359 492.857C378.424 493.072 378.457 493.305 378.457 493.557C378.457 494.294 378.177 494.882 377.617 495.321C377.057 495.76 376.315 495.979 375.391 495.979C374.467 495.979 373.725 495.746 373.165 495.279C372.605 494.812 372.315 494.187 372.297 493.403H373.823C373.841 493.786 373.995 494.084 374.285 494.299C374.583 494.504 374.971 494.607 375.447 494.607C375.727 494.607 375.974 494.57 376.189 494.495C376.413 494.42 376.59 494.308 376.721 494.159C376.851 494.01 376.917 493.832 376.917 493.627C376.917 493.515 376.898 493.412 376.861 493.319C376.823 493.226 376.758 493.146 376.665 493.081C376.581 493.006 376.492 492.946 376.399 492.899C376.305 492.852 376.184 492.81 376.035 492.773C375.885 492.726 375.75 492.694 375.629 492.675C375.517 492.647 375.367 492.619 375.181 492.591C374.985 492.554 374.821 492.526 374.691 492.507C374.569 492.479 374.411 492.442 374.215 492.395C374.028 492.348 373.874 492.297 373.753 492.241C373.631 492.185 373.491 492.12 373.333 492.045C373.183 491.961 373.062 491.868 372.969 491.765C372.875 491.653 372.782 491.532 372.689 491.401C372.605 491.261 372.539 491.102 372.493 490.925C372.455 490.748 372.437 490.552 372.437 490.337C372.437 489.656 372.703 489.105 373.235 488.685C373.776 488.265 374.485 488.055 375.363 488.055C376.24 488.055 376.945 488.274 377.477 488.713C378.009 489.152 378.279 489.74 378.289 490.477H376.819C376.809 490.122 376.674 489.852 376.413 489.665C376.151 489.469 375.792 489.371 375.335 489.371C374.905 489.371 374.565 489.455 374.313 489.623C374.061 489.791 373.935 490.01 373.935 490.281C373.935 490.393 373.953 490.491 373.991 490.575C374.028 490.659 374.089 490.734 374.173 490.799C374.266 490.864 374.35 490.92 374.425 490.967C374.509 491.004 374.63 491.042 374.789 491.079C374.947 491.116 375.078 491.144 375.181 491.163C375.283 491.182 375.433 491.205 375.629 491.233ZM392.87 492.031C392.87 492.171 392.861 492.344 392.842 492.549H386.71C386.804 493.156 387.056 493.636 387.466 493.991C387.886 494.346 388.404 494.523 389.02 494.523C389.319 494.523 389.599 494.481 389.86 494.397C390.122 494.304 390.35 494.178 390.546 494.019C390.752 493.851 390.92 493.65 391.05 493.417H392.688C392.39 494.22 391.914 494.85 391.26 495.307C390.607 495.755 389.86 495.979 389.02 495.979C387.91 495.979 386.981 495.601 386.234 494.845C385.497 494.089 385.128 493.146 385.128 492.017C385.128 490.888 385.497 489.945 386.234 489.189C386.981 488.433 387.91 488.055 389.02 488.055C389.776 488.055 390.448 488.237 391.036 488.601C391.624 488.956 392.077 489.436 392.394 490.043C392.712 490.64 392.87 491.303 392.87 492.031ZM389.02 489.455C388.442 489.455 387.947 489.618 387.536 489.945C387.135 490.272 386.869 490.72 386.738 491.289H391.316C391.223 490.906 391.069 490.58 390.854 490.309C390.64 490.029 390.374 489.819 390.056 489.679C389.748 489.53 389.403 489.455 389.02 489.455ZM398.244 488.069C399.122 488.069 399.817 488.363 400.33 488.951C400.853 489.539 401.114 490.304 401.114 491.247V495.797H399.56V491.555C399.56 490.874 399.411 490.356 399.112 490.001C398.823 489.637 398.394 489.455 397.824 489.455C397.236 489.455 396.751 489.67 396.368 490.099C395.986 490.528 395.794 491.079 395.794 491.751V495.797H394.24V488.237H395.318L395.626 489.287C395.916 488.904 396.284 488.606 396.732 488.391C397.19 488.176 397.694 488.069 398.244 488.069ZM406.248 494.383H407.102V495.797H405.954C405.404 495.797 404.928 495.69 404.526 495.475C404.125 495.26 403.817 494.952 403.602 494.551C403.388 494.14 403.28 493.66 403.28 493.109V489.567H401.922V489.273L404.554 486.473H404.82V488.237H407.06V489.567H404.834V492.983C404.834 493.431 404.956 493.776 405.198 494.019C405.441 494.262 405.791 494.383 406.248 494.383ZM408.337 495.797V485.521H409.891V495.797H408.337ZM417.206 488.237H418.872L415.4 495.937C414.962 496.898 414.514 497.566 414.056 497.939C413.608 498.322 413.006 498.513 412.25 498.513H411.48V497.113H412.124C412.619 497.113 412.983 497.015 413.216 496.819C413.45 496.623 413.706 496.217 413.986 495.601L414.154 495.251L410.864 488.237H412.558L414.952 493.515L417.206 488.237ZM306.852 505.055C307.991 505.055 308.929 505.433 309.666 506.189C310.413 506.936 310.786 507.878 310.786 509.017C310.786 510.156 310.413 511.103 309.666 511.859C308.929 512.606 307.991 512.979 306.852 512.979C305.798 512.979 304.906 512.634 304.178 511.943L303.982 512.797H302.806V502.521H304.36V505.937C305.06 505.349 305.891 505.055 306.852 505.055ZM304.948 510.781C305.424 511.257 306.017 511.495 306.726 511.495C307.436 511.495 308.024 511.262 308.49 510.795C308.957 510.319 309.19 509.726 309.19 509.017C309.19 508.308 308.957 507.72 308.49 507.253C308.024 506.777 307.436 506.539 306.726 506.539C306.26 506.539 305.835 506.646 305.452 506.861C305.079 507.076 304.785 507.374 304.57 507.757C304.356 508.13 304.248 508.55 304.248 509.017C304.248 509.717 304.482 510.305 304.948 510.781ZM319.347 509.031C319.347 509.171 319.338 509.344 319.319 509.549H313.187C313.28 510.156 313.532 510.636 313.943 510.991C314.363 511.346 314.881 511.523 315.497 511.523C315.796 511.523 316.076 511.481 316.337 511.397C316.598 511.304 316.827 511.178 317.023 511.019C317.228 510.851 317.396 510.65 317.527 510.417H319.165C318.866 511.22 318.39 511.85 317.737 512.307C317.084 512.755 316.337 512.979 315.497 512.979C314.386 512.979 313.458 512.601 312.711 511.845C311.974 511.089 311.605 510.146 311.605 509.017C311.605 507.888 311.974 506.945 312.711 506.189C313.458 505.433 314.386 505.055 315.497 505.055C316.253 505.055 316.925 505.237 317.513 505.601C318.101 505.956 318.554 506.436 318.871 507.043C319.188 507.64 319.347 508.303 319.347 509.031ZM315.497 506.455C314.918 506.455 314.424 506.618 314.013 506.945C313.612 507.272 313.346 507.72 313.215 508.289H317.793C317.7 507.906 317.546 507.58 317.331 507.309C317.116 507.029 316.85 506.819 316.533 506.679C316.225 506.53 315.88 506.455 315.497 506.455ZM320.717 512.797V502.521H322.271V512.797H320.717ZM330.567 511.859C329.801 512.606 328.84 512.979 327.683 512.979C326.525 512.979 325.559 512.606 324.785 511.859C324.019 511.103 323.637 510.156 323.637 509.017C323.637 508.27 323.809 507.594 324.155 506.987C324.509 506.38 324.995 505.909 325.611 505.573C326.236 505.228 326.927 505.055 327.683 505.055C328.439 505.055 329.125 505.228 329.741 505.573C330.366 505.909 330.851 506.38 331.197 506.987C331.551 507.594 331.729 508.27 331.729 509.017C331.729 510.156 331.341 511.103 330.567 511.859ZM327.683 511.495C328.159 511.495 328.583 511.392 328.957 511.187C329.33 510.972 329.619 510.678 329.825 510.305C330.039 509.922 330.147 509.493 330.147 509.017C330.147 508.298 329.913 507.706 329.447 507.239C328.989 506.772 328.401 506.539 327.683 506.539C326.964 506.539 326.371 506.772 325.905 507.239C325.447 507.706 325.219 508.298 325.219 509.017C325.219 509.736 325.447 510.328 325.905 510.795C326.371 511.262 326.964 511.495 327.683 511.495ZM341.998 505.237H343.552L341.018 512.797H339.758L337.812 508.191L335.866 512.797H334.606L332.086 505.237H333.682L335.39 510.333L337.56 505.321H338.064L340.262 510.375L341.998 505.237ZM352.957 510.347H354.343V512.797H347.217V511.733L348.155 511.523V508.961H347.399V507.687H348.155V506.035C348.155 505.204 348.43 504.528 348.981 504.005C349.541 503.482 350.255 503.221 351.123 503.221C351.972 503.221 352.658 503.478 353.181 503.991C353.704 504.504 353.965 505.176 353.965 506.007V506.175H352.579V506.091C352.579 505.662 352.439 505.307 352.159 505.027C351.888 504.747 351.543 504.607 351.123 504.607C350.834 504.607 350.577 504.672 350.353 504.803C350.129 504.934 349.956 505.116 349.835 505.349C349.714 505.573 349.653 505.834 349.653 506.133V507.687H351.921V508.961H349.653V511.481H352.957V510.347ZM355.094 503.487H358.23V512.797H356.732V504.845H355.094V503.487ZM362.846 506.833C363.798 506.833 364.578 507.122 365.184 507.701C365.8 508.28 366.108 509.003 366.108 509.871C366.108 510.758 365.805 511.495 365.198 512.083C364.592 512.671 363.836 512.965 362.93 512.965C362.034 512.965 361.288 512.685 360.69 512.125C360.102 511.565 359.794 510.851 359.766 509.983H361.278C361.297 510.44 361.46 510.814 361.768 511.103C362.076 511.392 362.464 511.537 362.93 511.537C363.406 511.537 363.798 511.378 364.106 511.061C364.424 510.744 364.582 510.347 364.582 509.871C364.582 509.712 364.559 509.558 364.512 509.409C364.475 509.26 364.419 509.124 364.344 509.003C364.27 508.872 364.176 508.756 364.064 508.653C363.962 508.55 363.845 508.462 363.714 508.387C363.584 508.312 363.439 508.256 363.28 508.219C363.131 508.182 362.968 508.163 362.79 508.163H360.326L360.144 507.953L360.648 503.487H365.464V504.859H361.866L361.656 506.833H362.846ZM376.611 502.521H378.165V512.797H376.989L376.793 511.943C376.065 512.634 375.173 512.979 374.119 512.979C372.98 512.979 372.037 512.606 371.291 511.859C370.553 511.103 370.185 510.156 370.185 509.017C370.185 507.878 370.553 506.936 371.291 506.189C372.037 505.433 372.98 505.055 374.119 505.055C375.08 505.055 375.911 505.349 376.611 505.937V502.521ZM372.481 510.795C372.947 511.262 373.535 511.495 374.245 511.495C374.954 511.495 375.542 511.262 376.009 510.795C376.485 510.319 376.723 509.726 376.723 509.017C376.723 508.55 376.615 508.13 376.401 507.757C376.186 507.374 375.887 507.076 375.505 506.861C375.131 506.646 374.711 506.539 374.245 506.539C373.778 506.539 373.353 506.646 372.971 506.861C372.597 507.076 372.303 507.374 372.089 507.757C371.883 508.13 371.781 508.55 371.781 509.017C371.781 509.726 372.014 510.319 372.481 510.795ZM387.285 509.031C387.285 509.171 387.276 509.344 387.257 509.549H381.125C381.219 510.156 381.471 510.636 381.881 510.991C382.301 511.346 382.819 511.523 383.435 511.523C383.734 511.523 384.014 511.481 384.275 511.397C384.537 511.304 384.765 511.178 384.961 511.019C385.167 510.851 385.335 510.65 385.465 510.417H387.103C386.805 511.22 386.329 511.85 385.675 512.307C385.022 512.755 384.275 512.979 383.435 512.979C382.325 512.979 381.396 512.601 380.649 511.845C379.912 511.089 379.543 510.146 379.543 509.017C379.543 507.888 379.912 506.945 380.649 506.189C381.396 505.433 382.325 505.055 383.435 505.055C384.191 505.055 384.863 505.237 385.451 505.601C386.039 505.956 386.492 506.436 386.809 507.043C387.127 507.64 387.285 508.303 387.285 509.031ZM383.435 506.455C382.857 506.455 382.362 506.618 381.951 506.945C381.55 507.272 381.284 507.72 381.153 508.289H385.731C385.638 507.906 385.484 507.58 385.269 507.309C385.055 507.029 384.789 506.819 384.471 506.679C384.163 506.53 383.818 506.455 383.435 506.455ZM391.175 512.979C390.251 512.979 389.509 512.746 388.949 512.279C388.389 511.812 388.1 511.187 388.081 510.403H389.607C389.626 510.786 389.78 511.084 390.069 511.299C390.368 511.504 390.755 511.607 391.231 511.607C391.511 511.607 391.759 511.57 391.973 511.495C392.197 511.42 392.375 511.308 392.505 511.159C392.636 511.01 392.701 510.832 392.701 510.627C392.701 510.487 392.669 510.366 392.603 510.263C392.538 510.151 392.459 510.062 392.365 509.997C392.272 509.932 392.137 509.871 391.959 509.815C391.791 509.759 391.637 509.717 391.497 509.689C391.367 509.661 391.189 509.628 390.965 509.591C390.732 509.554 390.545 509.521 390.405 509.493C390.265 509.465 390.088 509.423 389.873 509.367C389.659 509.302 389.481 509.236 389.341 509.171C389.211 509.096 389.066 509.003 388.907 508.891C388.749 508.779 388.623 508.653 388.529 508.513C388.445 508.373 388.371 508.205 388.305 508.009C388.249 507.804 388.221 507.58 388.221 507.337C388.221 506.656 388.487 506.105 389.019 505.685C389.561 505.265 390.27 505.055 391.147 505.055C392.025 505.055 392.729 505.274 393.261 505.713C393.793 506.152 394.064 506.74 394.073 507.477H392.603C392.594 507.122 392.459 506.852 392.197 506.665C391.936 506.469 391.577 506.371 391.119 506.371C390.69 506.371 390.349 506.455 390.097 506.623C389.845 506.791 389.719 507.01 389.719 507.281C389.719 507.393 389.738 507.491 389.775 507.575C389.813 507.659 389.873 507.734 389.957 507.799C390.051 507.864 390.135 507.92 390.209 507.967C390.293 508.004 390.415 508.042 390.573 508.079C390.732 508.116 390.863 508.144 390.965 508.163C391.068 508.182 391.217 508.205 391.413 508.233C391.665 508.28 391.852 508.317 391.973 508.345C392.104 508.364 392.286 508.406 392.519 508.471C392.753 508.527 392.935 508.588 393.065 508.653C393.196 508.718 393.345 508.812 393.513 508.933C393.691 509.045 393.821 509.176 393.905 509.325C393.999 509.465 394.078 509.642 394.143 509.857C394.209 510.072 394.241 510.305 394.241 510.557C394.241 511.294 393.961 511.882 393.401 512.321C392.841 512.76 392.099 512.979 391.175 512.979ZM399.681 505.055C400.428 505.055 401.1 505.228 401.697 505.573C402.295 505.909 402.761 506.38 403.097 506.987C403.433 507.594 403.601 508.27 403.601 509.017C403.601 510.156 403.228 511.103 402.481 511.859C401.744 512.606 400.811 512.979 399.681 512.979C398.711 512.979 397.875 512.676 397.175 512.069V515.513H395.621V505.237H396.671L396.965 506.161C397.693 505.424 398.599 505.055 399.681 505.055ZM397.791 510.795C398.258 511.262 398.846 511.495 399.555 511.495C400.274 511.495 400.867 511.262 401.333 510.795C401.8 510.319 402.033 509.726 402.033 509.017C402.033 508.308 401.8 507.72 401.333 507.253C400.867 506.777 400.279 506.539 399.569 506.539C399.103 506.539 398.678 506.646 398.295 506.861C397.913 507.076 397.614 507.374 397.399 507.757C397.194 508.13 397.091 508.55 397.091 509.017C397.091 509.726 397.325 510.319 397.791 510.795ZM404.966 504.061V502.465H406.576V504.061H404.966ZM404.994 512.797V505.237H406.548V512.797H404.994ZM411.848 511.383H412.702V512.797H411.554C411.003 512.797 410.527 512.69 410.126 512.475C409.724 512.26 409.416 511.952 409.202 511.551C408.987 511.14 408.88 510.66 408.88 510.109V506.567H407.522V506.273L410.154 503.473H410.42V505.237H412.66V506.567H410.434V509.983C410.434 510.431 410.555 510.776 410.798 511.019C411.04 511.262 411.39 511.383 411.848 511.383ZM421.036 509.031C421.036 509.171 421.026 509.344 421.008 509.549H414.876C414.969 510.156 415.221 510.636 415.632 510.991C416.052 511.346 416.57 511.523 417.186 511.523C417.484 511.523 417.764 511.481 418.026 511.397C418.287 511.304 418.516 511.178 418.712 511.019C418.917 510.851 419.085 510.65 419.216 510.417H420.854C420.555 511.22 420.079 511.85 419.426 512.307C418.772 512.755 418.026 512.979 417.186 512.979C416.075 512.979 415.146 512.601 414.4 511.845C413.662 511.089 413.294 510.146 413.294 509.017C413.294 507.888 413.662 506.945 414.4 506.189C415.146 505.433 416.075 505.055 417.186 505.055C417.942 505.055 418.614 505.237 419.202 505.601C419.79 505.956 420.242 506.436 420.56 507.043C420.877 507.64 421.036 508.303 421.036 509.031ZM417.186 506.455C416.607 506.455 416.112 506.618 415.702 506.945C415.3 507.272 415.034 507.72 414.904 508.289H419.482C419.388 507.906 419.234 507.58 419.02 507.309C418.805 507.029 418.539 506.819 418.222 506.679C417.914 506.53 417.568 506.455 417.186 506.455ZM320.275 528.859C319.51 529.606 318.548 529.979 317.391 529.979C316.234 529.979 315.268 529.606 314.493 528.859C313.728 528.103 313.345 527.156 313.345 526.017C313.345 525.27 313.518 524.594 313.863 523.987C314.218 523.38 314.703 522.909 315.319 522.573C315.944 522.228 316.635 522.055 317.391 522.055C318.147 522.055 318.833 522.228 319.449 522.573C320.074 522.909 320.56 523.38 320.905 523.987C321.26 524.594 321.437 525.27 321.437 526.017C321.437 527.156 321.05 528.103 320.275 528.859ZM317.391 528.495C317.867 528.495 318.292 528.392 318.665 528.187C319.038 527.972 319.328 527.678 319.533 527.305C319.748 526.922 319.855 526.493 319.855 526.017C319.855 525.298 319.622 524.706 319.155 524.239C318.698 523.772 318.11 523.539 317.391 523.539C316.672 523.539 316.08 523.772 315.613 524.239C315.156 524.706 314.927 525.298 314.927 526.017C314.927 526.736 315.156 527.328 315.613 527.795C316.08 528.262 316.672 528.495 317.391 528.495ZM326.817 522.069C327.694 522.069 328.389 522.363 328.903 522.951C329.425 523.539 329.687 524.304 329.687 525.247V529.797H328.133V525.555C328.133 524.874 327.983 524.356 327.685 524.001C327.395 523.637 326.966 523.455 326.397 523.455C325.809 523.455 325.323 523.67 324.941 524.099C324.558 524.528 324.367 525.079 324.367 525.751V529.797H322.813V522.237H323.891L324.199 523.287C324.488 522.904 324.857 522.606 325.305 522.391C325.762 522.176 326.266 522.069 326.817 522.069ZM337.703 522.237H338.725V528.803C338.725 529.606 338.571 530.296 338.263 530.875C337.964 531.463 337.53 531.911 336.961 532.219C336.392 532.536 335.72 532.695 334.945 532.695C333.984 532.695 333.176 532.457 332.523 531.981C331.87 531.514 331.445 530.861 331.249 530.021H332.803C332.943 530.432 333.209 530.749 333.601 530.973C334.002 531.197 334.446 531.309 334.931 531.309C335.603 531.309 336.149 531.104 336.569 530.693C336.989 530.282 337.199 529.722 337.199 529.013V528.677C336.499 529.274 335.664 529.573 334.693 529.573C333.648 529.573 332.761 529.214 332.033 528.495C331.314 527.767 330.955 526.876 330.955 525.821C330.955 524.766 331.314 523.875 332.033 523.147C332.761 522.419 333.648 522.055 334.693 522.055C335.804 522.055 336.723 522.442 337.451 523.217L337.703 522.237ZM334.875 528.131C335.202 528.131 335.51 528.075 335.799 527.963C336.088 527.842 336.336 527.683 336.541 527.487C336.746 527.282 336.905 527.034 337.017 526.745C337.138 526.456 337.199 526.148 337.199 525.821C337.199 525.149 336.98 524.594 336.541 524.155C336.102 523.716 335.547 523.497 334.875 523.497C334.203 523.497 333.643 523.721 333.195 524.169C332.756 524.608 332.537 525.158 332.537 525.821C332.537 526.484 332.756 527.034 333.195 527.473C333.643 527.912 334.203 528.131 334.875 528.131ZM347.025 528.859C346.26 529.606 345.298 529.979 344.141 529.979C342.984 529.979 342.018 529.606 341.243 528.859C340.478 528.103 340.095 527.156 340.095 526.017C340.095 525.27 340.268 524.594 340.613 523.987C340.968 523.38 341.453 522.909 342.069 522.573C342.694 522.228 343.385 522.055 344.141 522.055C344.897 522.055 345.583 522.228 346.199 522.573C346.824 522.909 347.31 523.38 347.655 523.987C348.01 524.594 348.187 525.27 348.187 526.017C348.187 527.156 347.8 528.103 347.025 528.859ZM344.141 528.495C344.617 528.495 345.042 528.392 345.415 528.187C345.788 527.972 346.078 527.678 346.283 527.305C346.498 526.922 346.605 526.493 346.605 526.017C346.605 525.298 346.372 524.706 345.905 524.239C345.448 523.772 344.86 523.539 344.141 523.539C343.422 523.539 342.83 523.772 342.363 524.239C341.906 524.706 341.677 525.298 341.677 526.017C341.677 526.736 341.906 527.328 342.363 527.795C342.83 528.262 343.422 528.495 344.141 528.495ZM349.534 521.061V519.465H351.144V521.061H349.534ZM349.562 529.797V522.237H351.116V529.797H349.562ZM357.046 522.069C357.924 522.069 358.619 522.363 359.132 522.951C359.655 523.539 359.916 524.304 359.916 525.247V529.797H358.362V525.555C358.362 524.874 358.213 524.356 357.914 524.001C357.625 523.637 357.196 523.455 356.626 523.455C356.038 523.455 355.553 523.67 355.17 524.099C354.788 524.528 354.596 525.079 354.596 525.751V529.797H353.042V522.237H354.12L354.428 523.287C354.718 522.904 355.086 522.606 355.534 522.391C355.992 522.176 356.496 522.069 357.046 522.069ZM367.933 522.237H368.955V528.803C368.955 529.606 368.801 530.296 368.493 530.875C368.194 531.463 367.76 531.911 367.191 532.219C366.621 532.536 365.949 532.695 365.175 532.695C364.213 532.695 363.406 532.457 362.753 531.981C362.099 531.514 361.675 530.861 361.479 530.021H363.033C363.173 530.432 363.439 530.749 363.831 530.973C364.232 531.197 364.675 531.309 365.161 531.309C365.833 531.309 366.379 531.104 366.799 530.693C367.219 530.282 367.429 529.722 367.429 529.013V528.677C366.729 529.274 365.893 529.573 364.923 529.573C363.877 529.573 362.991 529.214 362.263 528.495C361.544 527.767 361.185 526.876 361.185 525.821C361.185 524.766 361.544 523.875 362.263 523.147C362.991 522.419 363.877 522.055 364.923 522.055C366.033 522.055 366.953 522.442 367.681 523.217L367.933 522.237ZM365.105 528.131C365.431 528.131 365.739 528.075 366.029 527.963C366.318 527.842 366.565 527.683 366.771 527.487C366.976 527.282 367.135 527.034 367.247 526.745C367.368 526.456 367.429 526.148 367.429 525.821C367.429 525.149 367.209 524.594 366.771 524.155C366.332 523.716 365.777 523.497 365.105 523.497C364.433 523.497 363.873 523.721 363.425 524.169C362.986 524.608 362.767 525.158 362.767 525.821C362.767 526.484 362.986 527.034 363.425 527.473C363.873 527.912 364.433 528.131 365.105 528.131ZM376.652 529.979C375.728 529.979 374.986 529.746 374.426 529.279C373.866 528.812 373.577 528.187 373.558 527.403H375.084C375.103 527.786 375.257 528.084 375.546 528.299C375.845 528.504 376.232 528.607 376.708 528.607C376.988 528.607 377.235 528.57 377.45 528.495C377.674 528.42 377.851 528.308 377.982 528.159C378.113 528.01 378.178 527.832 378.178 527.627C378.178 527.487 378.145 527.366 378.08 527.263C378.015 527.151 377.935 527.062 377.842 526.997C377.749 526.932 377.613 526.871 377.436 526.815C377.268 526.759 377.114 526.717 376.974 526.689C376.843 526.661 376.666 526.628 376.442 526.591C376.209 526.554 376.022 526.521 375.882 526.493C375.742 526.465 375.565 526.423 375.35 526.367C375.135 526.302 374.958 526.236 374.818 526.171C374.687 526.096 374.543 526.003 374.384 525.891C374.225 525.779 374.099 525.653 374.006 525.513C373.922 525.373 373.847 525.205 373.782 525.009C373.726 524.804 373.698 524.58 373.698 524.337C373.698 523.656 373.964 523.105 374.496 522.685C375.037 522.265 375.747 522.055 376.624 522.055C377.501 522.055 378.206 522.274 378.738 522.713C379.27 523.152 379.541 523.74 379.55 524.477H378.08C378.071 524.122 377.935 523.852 377.674 523.665C377.413 523.469 377.053 523.371 376.596 523.371C376.167 523.371 375.826 523.455 375.574 523.623C375.322 523.791 375.196 524.01 375.196 524.281C375.196 524.393 375.215 524.491 375.252 524.575C375.289 524.659 375.35 524.734 375.434 524.799C375.527 524.864 375.611 524.92 375.686 524.967C375.77 525.004 375.891 525.042 376.05 525.079C376.209 525.116 376.339 525.144 376.442 525.163C376.545 525.182 376.694 525.205 376.89 525.233C377.142 525.28 377.329 525.317 377.45 525.345C377.581 525.364 377.763 525.406 377.996 525.471C378.229 525.527 378.411 525.588 378.542 525.653C378.673 525.718 378.822 525.812 378.99 525.933C379.167 526.045 379.298 526.176 379.382 526.325C379.475 526.465 379.555 526.642 379.62 526.857C379.685 527.072 379.718 527.305 379.718 527.557C379.718 528.294 379.438 528.882 378.878 529.321C378.318 529.76 377.576 529.979 376.652 529.979ZM384.5 529.979C383.38 529.979 382.437 529.601 381.672 528.845C380.916 528.08 380.538 527.137 380.538 526.017C380.538 524.888 380.916 523.945 381.672 523.189C382.437 522.433 383.385 522.055 384.514 522.055C385.438 522.055 386.241 522.316 386.922 522.839C387.603 523.362 388.047 524.057 388.252 524.925H386.712C386.516 524.496 386.222 524.16 385.83 523.917C385.438 523.665 384.995 523.539 384.5 523.539C384.061 523.539 383.66 523.646 383.296 523.861C382.932 524.076 382.643 524.374 382.428 524.757C382.223 525.13 382.12 525.55 382.12 526.017C382.12 526.717 382.349 527.305 382.806 527.781C383.263 528.257 383.828 528.495 384.5 528.495C384.995 528.495 385.433 528.369 385.816 528.117C386.208 527.865 386.507 527.506 386.712 527.039H388.28C388.065 527.926 387.613 528.64 386.922 529.181C386.241 529.713 385.433 529.979 384.5 529.979ZM395.855 522.237H397.059V529.797H395.799L395.645 528.873C394.917 529.61 394.007 529.979 392.915 529.979C391.786 529.979 390.843 529.601 390.087 528.845C389.34 528.089 388.967 527.146 388.967 526.017C388.967 524.878 389.34 523.936 390.087 523.189C390.843 522.433 391.786 522.055 392.915 522.055C394.026 522.055 394.945 522.428 395.673 523.175L395.855 522.237ZM391.249 527.795C391.725 528.262 392.318 528.495 393.027 528.495C393.746 528.495 394.334 528.262 394.791 527.795C395.258 527.319 395.491 526.726 395.491 526.017C395.491 525.298 395.258 524.706 394.791 524.239C394.334 523.772 393.746 523.539 393.027 523.539C392.56 523.539 392.136 523.646 391.753 523.861C391.38 524.076 391.086 524.374 390.871 524.757C390.656 525.13 390.549 525.55 390.549 526.017C390.549 526.726 390.782 527.319 391.249 527.795ZM398.995 529.797V519.521H400.549V529.797H398.995ZM409.657 526.031C409.657 526.171 409.647 526.344 409.629 526.549H403.497C403.59 527.156 403.842 527.636 404.253 527.991C404.673 528.346 405.191 528.523 405.807 528.523C406.105 528.523 406.385 528.481 406.647 528.397C406.908 528.304 407.137 528.178 407.333 528.019C407.538 527.851 407.706 527.65 407.837 527.417H409.475C409.176 528.22 408.7 528.85 408.047 529.307C407.393 529.755 406.647 529.979 405.807 529.979C404.696 529.979 403.767 529.601 403.021 528.845C402.283 528.089 401.915 527.146 401.915 526.017C401.915 524.888 402.283 523.945 403.021 523.189C403.767 522.433 404.696 522.055 405.807 522.055C406.563 522.055 407.235 522.237 407.823 522.601C408.411 522.956 408.863 523.436 409.181 524.043C409.498 524.64 409.657 525.303 409.657 526.031ZM405.807 523.455C405.228 523.455 404.733 523.618 404.323 523.945C403.921 524.272 403.655 524.72 403.525 525.289H408.103C408.009 524.906 407.855 524.58 407.641 524.309C407.426 524.029 407.16 523.819 406.843 523.679C406.535 523.53 406.189 523.455 405.807 523.455Z" fill="#222222"/>
<path d="M407 396C407 396 405.34 396.5 404 399C402.66 401.5 402 404 402 404C402 404 401 401 400 399C399 397 397 396 397 396H380C375.582 396 372 392.418 372 388V379C372 374.582 375.582 371 380 371H423C427.418 371 431 374.582 431 379V388C431 392.418 427.418 396 423 396H407Z" fill="#222222"/>
<rect x="376" y="375.5" width="16" height="16" rx="4" fill="white"/>
<path d="M383.5 387.5C383.5 387.776 383.724 388 384 388C384.276 388 384.5 387.776 384.5 387.5L383.5 387.5ZM384.354 379.146C384.158 378.951 383.842 378.951 383.646 379.146L380.464 382.328C380.269 382.524 380.269 382.84 380.464 383.036C380.66 383.231 380.976 383.231 381.172 383.036L384 380.207L386.828 383.036C387.024 383.231 387.34 383.231 387.536 383.036C387.731 382.84 387.731 382.524 387.536 382.328L384.354 379.146ZM384 387.5L384.5 387.5L384.5 379.5L384 379.5L383.5 379.5L383.5 387.5L384 387.5Z" fill="#222222"/>
<path d="M404.848 387.144C403.608 387.144 402.576 386.736 401.752 385.92C400.936 385.096 400.528 384.056 400.528 382.8C400.528 381.544 400.936 380.508 401.752 379.692C402.576 378.868 403.608 378.456 404.848 378.456C405.504 378.456 406.112 378.584 406.672 378.84C407.232 379.096 407.7 379.46 408.076 379.932C408.46 380.404 408.724 380.952 408.868 381.576H407.476C407.276 381.016 406.944 380.58 406.48 380.268C406.016 379.948 405.472 379.788 404.848 379.788C404.008 379.788 403.312 380.072 402.76 380.64C402.208 381.208 401.932 381.932 401.932 382.812C401.932 383.684 402.208 384.404 402.76 384.972C403.312 385.532 404.008 385.812 404.848 385.812C405.488 385.812 406.044 385.644 406.516 385.308C406.988 384.964 407.316 384.496 407.5 383.904H408.904C408.688 384.888 408.212 385.676 407.476 386.268C406.74 386.852 405.864 387.144 404.848 387.144ZM413.469 378.6C414.005 378.6 414.489 378.72 414.921 378.96C415.361 379.2 415.705 379.532 415.953 379.956C416.201 380.38 416.325 380.852 416.325 381.372C416.325 382.164 416.053 382.824 415.509 383.352C414.965 383.88 414.285 384.144 413.469 384.144H411.741V387H410.361V378.6H413.469ZM413.397 382.836C413.621 382.836 413.825 382.8 414.009 382.728C414.201 382.656 414.365 382.556 414.501 382.428C414.637 382.3 414.741 382.144 414.813 381.96C414.893 381.776 414.933 381.58 414.933 381.372C414.933 381.092 414.865 380.844 414.729 380.628C414.601 380.404 414.421 380.228 414.189 380.1C413.957 379.972 413.693 379.908 413.397 379.908H411.741V382.836H413.397ZM422.894 387L422.162 385.176H418.418L417.698 387H416.234L419.618 378.6H420.914L424.382 387H422.894ZM420.278 380.4L418.898 383.94H421.682L420.278 380.4Z" fill="white"/>
<circle cx="402.5" cy="411.5" r="1.5" fill="#222222"/>
<circle cx="370" cy="433" r="1" fill="#222222"/>
<circle cx="327" cy="432" r="1" fill="#222222"/>
</g>
</g>
<defs>
<filter id="filter0_d_3351_14680" x="16" y="107" width="282" height="282" filterUnits="userSpaceOnUse" color-interpolation-filters="sRGB">
<feFlood flood-opacity="0" result="BackgroundImageFix"/>
<feColorMatrix in="SourceAlpha" type="matrix" values="0 0 0 0 0 0 0 0 0 0 0 0 0 0 0 0 0 0 127 0" result="hardAlpha"/>
<feOffset dy="4"/>
<feGaussianBlur stdDeviation="8"/>
<feComposite in2="hardAlpha" operator="out"/>
<feColorMatrix type="matrix" values="0 0 0 0 0 0 0 0 0 0 0 0 0 0 0 0 0 0 0.07 0"/>
<feBlend mode="normal" in2="BackgroundImageFix" result="effect1_dropShadow_3351_14680"/>
<feBlend mode="normal" in="SourceGraphic" in2="effect1_dropShadow_3351_14680" result="shape"/>
</filter>
<filter id="filter1_d_3351_14680" x="265" y="20" width="262" height="262" filterUnits="userSpaceOnUse" color-interpolation-filters="sRGB">
<feFlood flood-opacity="0" result="BackgroundImageFix"/>
<feColorMatrix in="SourceAlpha" type="matrix" values="0 0 0 0 0 0 0 0 0 0 0 0 0 0 0 0 0 0 127 0" result="hardAlpha"/>
<feOffset dy="4"/>
<feGaussianBlur stdDeviation="8"/>
<feComposite in2="hardAlpha" operator="out"/>
<feColorMatrix type="matrix" values="0 0 0 0 0 0 0 0 0 0 0 0 0 0 0 0 0 0 0.07 0"/>
<feBlend mode="normal" in2="BackgroundImageFix" result="effect1_dropShadow_3351_14680"/>
<feBlend mode="normal" in="SourceGraphic" in2="effect1_dropShadow_3351_14680" result="shape"/>
</filter>
<filter id="filter2_d_3351_14680" x="196" y="289" width="331" height="331" filterUnits="userSpaceOnUse" color-interpolation-filters="sRGB">
<feFlood flood-opacity="0" result="BackgroundImageFix"/>
<feColorMatrix in="SourceAlpha" type="matrix" values="0 0 0 0 0 0 0 0 0 0 0 0 0 0 0 0 0 0 127 0" result="hardAlpha"/>
<feOffset dy="4"/>
<feGaussianBlur stdDeviation="8"/>
<feComposite in2="hardAlpha" operator="out"/>
<feColorMatrix type="matrix" values="0 0 0 0 0 0 0 0 0 0 0 0 0 0 0 0 0 0 0.07 0"/>
<feBlend mode="normal" in2="BackgroundImageFix" result="effect1_dropShadow_3351_14680"/>
<feBlend mode="normal" in="SourceGraphic" in2="effect1_dropShadow_3351_14680" result="shape"/>
</filter>
<linearGradient id="paint0_linear_3351_14680" x1="1.10366" y1="-2.99746e-05" x2="581.993" y2="37.2574" gradientUnits="userSpaceOnUse">
<stop stop-color="#FFE414"/>
<stop offset="1" stop-color="#FFAE00"/>
</linearGradient>
<radialGradient id="paint1_radial_3351_14680" cx="0" cy="0" r="1" gradientUnits="userSpaceOnUse" gradientTransform="translate(232.93 349.707) rotate(28.3111) scale(626.954 2307.32)">
<stop stop-color="#222222" stop-opacity="0.2"/>
<stop offset="1" stop-color="#222222"/>
</radialGradient>
<linearGradient id="paint2_linear_3351_14680" x1="157" y1="0.5" x2="6.29206" y2="-0.0496579" gradientUnits="userSpaceOnUse">
<stop offset="0.177745" stop-color="#222222"/>
<stop offset="1" stop-color="#FFE414"/>
</linearGradient>
<linearGradient id="paint3_linear_3351_14680" x1="294.301" y1="447.533" x2="422.715" y2="397.093" gradientUnits="userSpaceOnUse">
<stop stop-color="#FFCD22"/>
<stop offset="0.495257" stop-color="#222222"/>
<stop offset="1" stop-color="#FFC01D"/>
</linearGradient>
<clipPath id="clip0_3351_14680">
<rect width="543" height="628" fill="white"/>
</clipPath>
<clipPath id="clip1_3351_14680">
<rect width="16" height="16" fill="white" transform="translate(325 140)"/>
</clipPath>
<clipPath id="clip2_3351_14680">
<rect width="32" height="32" fill="white" transform="translate(301 375)"/>
</clipPath>
</defs>
</svg>
